<?xml version="1.0" encoding="UTF-8" standalone="no"?>
<!-- Created with Inkscape (http://www.inkscape.org/) -->

<svg
   width="32.799999mm"
   height="32.799999mm"
   viewBox="0 0 32.799999 32.799999"
   version="1.1"
   id="svg1"
   inkscape:export-batch-path="C:\Users\terlo\OneDrive\University\Assignments\Quantum Engineering\QuantumEngineering\UI figures"
   inkscape:export-batch-name="batch"
   sodipodi:docname="0.svg"
   xml:space="preserve"
   inkscape:version="1.4 (86a8ad7, 2024-10-11)"
   xmlns:inkscape="http://www.inkscape.org/namespaces/inkscape"
   xmlns:sodipodi="http://sodipodi.sourceforge.net/DTD/sodipodi-0.dtd"
   xmlns="http://www.w3.org/2000/svg"
   xmlns:svg="http://www.w3.org/2000/svg"><sodipodi:namedview
     id="namedview1"
     pagecolor="#ffffff"
     bordercolor="#000000"
     borderopacity="0.25"
     inkscape:showpageshadow="2"
     inkscape:pageopacity="0.0"
     inkscape:pagecheckerboard="0"
     inkscape:deskcolor="#d1d1d1"
     inkscape:document-units="mm"
     inkscape:zoom="1.0330822"
     inkscape:cx="35.331167"
     inkscape:cy="195.53139"
     inkscape:window-width="1920"
     inkscape:window-height="991"
     inkscape:window-x="-9"
     inkscape:window-y="-9"
     inkscape:window-maximized="1"
     inkscape:current-layer="layer1"><inkscape:page
       x="0"
       y="0"
       width="32.799999"
       height="32.799999"
       id="page3"
       margin="0"
       bleed="0" /></sodipodi:namedview><defs
     id="defs1" /><g
     inkscape:label="Layer 1"
     inkscape:groupmode="layer"
     id="layer1"
     transform="translate(-13.922748,-12.898306)"><path
       style="fill:#ffffff"
       d="m 24.035808,42.821546 c -6.101435,-5.221001 -9.197493,-7.891303 -9.245621,-7.974203 -0.01247,-0.02148 -0.02267,-0.05918 -0.02267,-0.08379 0,-0.04157 0.516577,-2.620421 1.256589,-6.27313 0.57207,-2.823742 1.2381,-6.133905 1.587405,-7.889378 0.189978,-0.954758 0.346937,-1.737536 0.348796,-1.739508 0.01679,-0.0178 14.28095,-4.221271 14.548595,-4.28729 0.157589,-0.03887 0.326955,0.0037 0.508394,0.127907 0.106665,0.073 6.321414,4.611371 8.022239,5.858311 2.147757,1.574602 4.729149,3.479021 4.777749,3.524778 0.01382,0.01302 -0.14911,0.735453 -0.891526,3.952953 -1.039524,4.505116 -1.67964,7.267757 -2.292469,9.893941 -0.235812,1.010535 -0.44,1.893271 -0.453752,1.961634 -0.03208,0.159492 -0.06095,0.196723 -0.215006,0.277269 -0.07304,0.03819 -2.768621,1.050913 -7.350499,2.761568 -3.979343,1.485696 -7.243913,2.704657 -7.254601,2.708801 -0.013,0.005 -1.113905,-0.929007 -3.323623,-2.819864 z m 4.175269,1.76372 c 0.07666,-0.02922 3.022382,-1.130346 6.546046,-2.446952 3.523664,-1.316606 6.453033,-2.417187 6.509709,-2.445735 0.162313,-0.08176 0.199586,-0.127212 0.225888,-0.275463 0.0082,-0.04601 0.773465,-3.34531 1.700671,-7.331778 0.927206,-3.986468 1.686137,-7.268527 1.686513,-7.293465 6.21e-4,-0.04118 -0.0029,-0.0457 -0.03857,-0.04919 -0.02609,-0.0026 -2.263406,0.767632 -6.671213,2.296547 -3.647576,1.265217 -6.663966,2.315049 -6.703089,2.33296 -0.100867,0.04618 -0.154171,0.09062 -0.183041,0.152616 -0.03198,0.06867 -3.249664,14.794805 -3.26738,14.953572 -0.0073,0.06518 -0.0096,0.127852 -0.0053,0.139262 0.01205,0.03141 0.04742,0.02568 0.199733,-0.03238 z m 2.419556,-1.683691 c -0.195159,-0.03261 -0.385853,-0.136297 -0.494612,-0.268931 -0.07589,-0.09255 -0.150159,-0.250201 -0.181087,-0.384388 -0.03438,-0.149171 -0.03117,-0.420298 0.0071,-0.602391 0.08192,-0.389392 0.291942,-0.81561 0.584095,-1.18535 0.192813,-0.244017 0.549517,-0.561965 0.81693,-0.728168 0.329804,-0.204982 0.670345,-0.314681 0.97687,-0.314681 0.283931,0 0.464893,0.06658 0.63016,0.231847 0.111078,0.111077 0.173718,0.223994 0.220807,0.398032 0.03665,0.135457 0.03988,0.422971 0.0067,0.594335 -0.101061,0.521515 -0.402339,1.058391 -0.838946,1.494998 -0.409249,0.409249 -0.88978,0.682605 -1.332109,0.757787 -0.129382,0.02199 -0.288999,0.02478 -0.395918,0.0069 z m 5.291818,-6.237483 c -0.113356,-0.02435 -0.279588,-0.108374 -0.363497,-0.183742 -0.195483,-0.175586 -0.30077,-0.481775 -0.279237,-0.812059 0.05548,-0.851043 0.77318,-1.842921 1.649951,-2.280281 0.904844,-0.451363 1.647507,-0.121901 1.648266,0.731207 4.89e-4,0.551203 -0.310945,1.214817 -0.817306,1.741539 -0.401779,0.417935 -0.88113,0.708137 -1.31611,0.79678 -0.154644,0.03151 -0.39198,0.03449 -0.522067,0.0066 z m 5.045834,-6.043174 c -0.361202,-0.05613 -0.597887,-0.270452 -0.694989,-0.629334 -0.0371,-0.137134 -0.03976,-0.422077 -0.0056,-0.600812 0.05898,-0.308569 0.210058,-0.663352 0.41064,-0.964328 0.147833,-0.221825 0.255267,-0.353497 0.432264,-0.529787 0.38548,-0.383942 0.830677,-0.645555 1.263257,-0.742333 0.138816,-0.03106 0.431536,-0.03097 0.544095,1.54e-4 0.294201,0.08136 0.50047,0.296627 0.584972,0.610486 0.04033,0.149812 0.03974,0.449972 -0.0013,0.64008 -0.216308,1.002954 -1.177726,2.007619 -2.101387,2.195914 -0.127219,0.02593 -0.332514,0.03542 -0.432003,0.01996 z M 27.037168,44.366341 c 0.013,-0.01781 0.03223,-0.08194 0.04274,-0.142501 0.01051,-0.06056 0.743255,-3.424237 1.628323,-7.47483 0.885067,-4.050594 1.6116,-7.40341 1.614517,-7.450704 0.0059,-0.09576 -0.01627,-0.156 -0.08319,-0.226016 -0.07621,-0.07973 -11.653806,-9.313481 -11.682288,-9.317249 -0.02285,-0.003 -0.03281,0.0046 -0.04235,0.03239 -0.0069,0.01999 -0.672846,3.342793 -1.479963,7.384014 -0.948522,4.749238 -1.464506,7.359544 -1.459062,7.381236 0.0046,0.01846 0.03014,0.0577 0.05667,0.0872 0.02654,0.0295 2.496679,2.164122 5.489202,4.743596 2.992523,2.579473 5.508272,4.749405 5.590554,4.82207 0.237642,0.209866 0.275395,0.228553 0.324844,0.160793 z M 25.258048,41.6909 c -0.121408,-0.02416 -0.285226,-0.09259 -0.420072,-0.175459 -0.15966,-0.09812 -0.444176,-0.382146 -0.570105,-0.569126 -0.27737,-0.411844 -0.450691,-0.856323 -0.53144,-1.362867 -0.03301,-0.207047 -0.03253,-0.688452 8.61e-4,-0.87181 0.06876,-0.377565 0.200214,-0.656372 0.403126,-0.855006 0.112543,-0.110171 0.223671,-0.177613 0.366387,-0.222358 0.09855,-0.0309 0.12069,-0.03314 0.26557,-0.02689 0.179154,0.0077 0.277345,0.03332 0.441566,0.115056 0.155024,0.07716 0.284813,0.172546 0.429372,0.315552 0.215215,0.212904 0.358777,0.419652 0.513455,0.739445 0.458306,0.947535 0.424187,2.095574 -0.07841,2.638443 -0.220177,0.237818 -0.513361,0.33611 -0.820306,0.275015 z m -7.245393,-6.114016 c -0.626847,-0.137927 -1.211151,-0.858423 -1.444777,-1.781533 -0.22218,-0.877879 -0.04427,-1.77208 0.422058,-2.121308 0.27605,-0.206732 0.569149,-0.239622 0.907197,-0.101801 0.236932,0.0966 0.534793,0.342005 0.724938,0.597281 0.313928,0.421457 0.52988,0.970371 0.603953,1.535145 0.02599,0.198176 0.01942,0.599537 -0.01273,0.777279 -0.07247,0.40067 -0.200164,0.668207 -0.415722,0.870989 -0.118371,0.111354 -0.24133,0.180885 -0.384742,0.217564 -0.116003,0.02967 -0.282296,0.03232 -0.400176,0.0064 z m 4.525457,-1.380239 c -0.411016,-0.06936 -0.837925,-0.414691 -1.140602,-0.922648 -0.199317,-0.334498 -0.340994,-0.721617 -0.411924,-1.125549 -0.0353,-0.201017 -0.04913,-0.60796 -0.02703,-0.795326 0.07656,-0.649163 0.363824,-1.089724 0.797994,-1.22384 0.107583,-0.03323 0.295388,-0.0396 0.414549,-0.01406 0.66045,0.141582 1.287245,0.962066 1.482636,1.940792 0.135626,0.679363 0.05346,1.302793 -0.227816,1.728522 -0.201592,0.305123 -0.553571,0.468506 -0.887804,0.412104 z M 27.261967,32.5008 c -0.266589,-0.04229 -0.530694,-0.188808 -0.771746,-0.428145 -0.219384,-0.217823 -0.366275,-0.429223 -0.517774,-0.745164 -0.14195,-0.296027 -0.241651,-0.616281 -0.292394,-0.939212 -0.02927,-0.186307 -0.03319,-0.661778 -0.0068,-0.828854 0.09715,-0.61554 0.403576,-1.036401 0.83119,-1.141583 0.09912,-0.02438 0.297877,-0.021 0.408071,0.0069 0.11985,0.03039 0.305939,0.118593 0.43035,0.203986 0.12462,0.08554 0.349164,0.306145 0.455012,0.447039 0.300092,0.39945 0.500997,0.889703 0.593593,1.4485 0.0296,0.178624 0.03348,0.683683 0.0064,0.835575 -0.0532,0.298606 -0.144197,0.547392 -0.265351,0.72546 -0.117377,0.172515 -0.314338,0.3265 -0.487654,0.381251 -0.11099,0.03506 -0.281496,0.0503 -0.382897,0.03421 z m -7.450578,-5.998718 c -0.19216,-0.05037 -0.367848,-0.145383 -0.554835,-0.300044 -0.380336,-0.314585 -0.703821,-0.871754 -0.852569,-1.468461 -0.07445,-0.298662 -0.09294,-0.453899 -0.09179,-0.770801 8.1e-4,-0.22391 0.0064,-0.308019 0.02833,-0.428937 0.07221,-0.397456 0.247198,-0.740113 0.465616,-0.911736 0.08532,-0.06704 0.210711,-0.134968 0.314136,-0.170176 0.10519,-0.03581 0.334042,-0.03285 0.472845,0.0061 0.756818,0.212433 1.390082,1.20025 1.483707,2.314406 0.03512,0.417885 -0.04096,0.877488 -0.194979,1.178007 -0.151012,0.294646 -0.37632,0.490864 -0.640479,0.557787 -0.107635,0.02727 -0.313744,0.02432 -0.429982,-0.0062 z m 11.453867,1.898361 c 0.0842,-0.01987 12.962949,-4.480196 13.073551,-4.527787 0.13622,-0.05861 0.139679,-0.108813 0.01382,-0.200539 -0.0445,-0.03243 -2.616778,-1.913692 -5.716177,-4.180583 -3.099399,-2.266891 -5.68628,-4.155294 -5.748624,-4.196451 -0.151468,-0.09999 -0.236648,-0.131206 -0.359491,-0.131735 -0.05344,-2.3e-4 -0.129222,0.0085 -0.16841,0.01935 -0.187729,0.05207 -13.017553,3.82131 -13.048566,3.833502 -0.01974,0.0078 -0.03562,0.024 -0.03562,0.03642 0,0.02235 11.525778,9.235674 11.634674,9.30037 0.115044,0.06835 0.21163,0.08127 0.354849,0.04746 z m 0.877,-1.744726 c -0.789325,-0.0649 -1.538862,-0.367747 -1.966092,-0.794383 -0.322572,-0.322125 -0.416107,-0.629991 -0.27951,-0.920003 0.149804,-0.318054 0.563196,-0.529937 1.153159,-0.591049 0.203728,-0.0211 0.620701,-0.0083 0.843744,0.02589 0.953841,0.146255 1.7689,0.624044 1.989129,1.166032 0.121302,0.298527 0.02919,0.59318 -0.252123,0.806526 -0.315928,0.239596 -0.883672,0.356701 -1.488307,0.306984 z m 7.342977,-2.434425 c -0.638114,-0.04262 -1.296128,-0.261453 -1.751308,-0.582412 -0.609469,-0.429753 -0.767154,-0.967042 -0.393477,-1.340719 0.522177,-0.522177 1.869479,-0.542303 2.908843,-0.04345 1.075688,0.516286 1.313184,1.355945 0.498765,1.763359 -0.321661,0.160912 -0.78353,0.235239 -1.262823,0.203222 z M 28.338148,23.728573 c -0.50344,-0.03859 -1.060697,-0.195365 -1.456542,-0.409772 -0.279063,-0.151152 -0.564687,-0.384594 -0.696393,-0.569162 -0.231304,-0.324143 -0.230332,-0.658424 0.0026,-0.910068 0.04002,-0.04322 0.100484,-0.09894 0.134366,-0.123812 0.158197,-0.116128 0.428096,-0.219788 0.698084,-0.268113 0.193312,-0.0346 0.631029,-0.04713 0.853166,-0.02442 0.455741,0.04659 0.884638,0.166789 1.269936,0.355905 0.244212,0.119868 0.439493,0.250965 0.594325,0.398984 0.195465,0.186866 0.301723,0.347917 0.349147,0.529185 0.02713,0.103704 0.02017,0.288794 -0.01408,0.374563 -0.130734,0.327357 -0.511574,0.550781 -1.069627,0.627509 -0.182404,0.02508 -0.477294,0.03359 -0.665027,0.0192 z m 7.143845,-2.376102 c -1.121786,-0.136617 -2.067086,-0.72722 -2.16403,-1.35204 -0.01086,-0.06998 -0.01071,-0.116051 5.82e-4,-0.18301 0.08309,-0.49263 0.728174,-0.803191 1.606398,-0.773367 0.687898,0.02336 1.401607,0.246306 1.894452,0.59178 0.154216,0.108103 0.365654,0.316983 0.443659,0.438293 0.279965,0.435388 0.145517,0.857475 -0.349573,1.097452 -0.196877,0.09543 -0.421232,0.156452 -0.686596,0.186745 -0.156847,0.01791 -0.576909,0.01461 -0.744892,-0.0059 z M 24.58066,20.799914 c -0.943559,-0.08246 -1.834883,-0.520871 -2.15822,-1.061547 -0.242839,-0.406069 -0.111733,-0.808627 0.339205,-1.041527 0.653168,-0.337348 1.770498,-0.280134 2.635157,0.134937 0.31263,0.150074 0.527842,0.299443 0.709186,0.492213 0.394942,0.419826 0.389366,0.862559 -0.01472,1.169013 -0.319079,0.241984 -0.900912,0.360195 -1.510605,0.306911 z m 7.144486,-2.221074 c -1.006105,-0.121116 -1.900337,-0.629071 -2.118988,-1.20366 -0.06687,-0.175733 -0.05658,-0.359939 0.02962,-0.530045 0.04024,-0.07941 0.166661,-0.213747 0.262762,-0.279221 0.740759,-0.504674 2.305343,-0.346632 3.213323,0.324585 0.384815,0.284471 0.589377,0.632255 0.54688,0.929773 -0.05582,0.390797 -0.47653,0.674711 -1.125952,0.759842 -0.184597,0.0242 -0.601508,0.02354 -0.807646,-0.0013 z"
       id="path5" /></g></svg>
