<?xml version="1.0" encoding="UTF-8" standalone="no"?>
<!-- Created with Inkscape (http://www.inkscape.org/) -->

<svg
   width="61.373779mm"
   height="113.37537mm"
   viewBox="0 0 61.373779 113.37536"
   version="1.1"
   id="svg1"
   xml:space="preserve"
   inkscape:version="1.4 (86a8ad7, 2024-10-11)"
   sodipodi:docname="blue_pawn.svg"
   xmlns:inkscape="http://www.inkscape.org/namespaces/inkscape"
   xmlns:sodipodi="http://sodipodi.sourceforge.net/DTD/sodipodi-0.dtd"
   xmlns="http://www.w3.org/2000/svg"
   xmlns:svg="http://www.w3.org/2000/svg"><sodipodi:namedview
     id="namedview1"
     pagecolor="#ffffff"
     bordercolor="#000000"
     borderopacity="0.25"
     inkscape:showpageshadow="2"
     inkscape:pageopacity="0.0"
     inkscape:pagecheckerboard="0"
     inkscape:deskcolor="#d1d1d1"
     inkscape:document-units="mm"
     inkscape:zoom="0.73049944"
     inkscape:cx="396.30421"
     inkscape:cy="561.25984"
     inkscape:window-width="3200"
     inkscape:window-height="1711"
     inkscape:window-x="1911"
     inkscape:window-y="1"
     inkscape:window-maximized="1"
     inkscape:current-layer="g12"><inkscape:page
       x="2.3445804e-14"
       y="-1.1216583e-14"
       width="61.373775"
       height="113.37537"
       id="page2"
       margin="0"
       bleed="0" /></sodipodi:namedview><defs
     id="defs1"><filter
       inkscape:collect="always"
       style="color-interpolation-filters:sRGB"
       id="filter3"
       x="-0.0074780207"
       y="-0.0039996673"
       width="1.014956"
       height="1.0079993"><feGaussianBlur
         inkscape:collect="always"
         stdDeviation="0.1017978"
         id="feGaussianBlur3" /></filter></defs><g
     inkscape:label="Layer 1"
     inkscape:groupmode="layer"
     id="layer1"
     transform="translate(-714.25515,-42.593851)"><g
       id="g12"
       transform="matrix(1.016413,0,0,1.016413,309.37759,-69.412399)"
       style="stroke-width:0.983852"><path
         style="mix-blend-mode:normal;fill:#0800bc;fill-opacity:1;stroke-width:0.531359"
         d="m 330.68071,117.72483 c -3.96617,-0.28474 -7.39409,-1.18261 -10.83122,-2.83704 -1.66446,-0.80117 -1.49837,-0.49201 -1.64623,-3.06443 -0.0907,-1.57862 -0.0824,-1.71482 0.12797,-2.09989 l 0.225,-0.41178 -0.24004,-0.33711 c -0.21945,-0.30817 -0.24005,-0.48234 -0.24005,-2.0293 v -1.6922 l 0.67836,-0.84325 c 0.37309,-0.46378 1.1454,-1.21113 1.71624,-1.66075 0.57084,-0.44963 1.32981,-1.04806 1.6866,-1.32984 0.51836,-0.40939 0.74818,-0.70455 1.14378,-1.468927 0.2723,-0.52612 0.60007,-1.23344 0.72837,-1.57181 l 0.23329,-0.61522 -0.32347,-0.34138 c -0.89285,-0.94228 -0.98138,-2.18671 -0.23887,-3.35753 0.26639,-0.42006 0.4893,-0.58941 1.31072,-0.9958 l 0.98975,-0.48967 0.45946,-1.12541 c 0.81875,-2.00541 1.59249,-5.4257 1.9151,-8.46568 0.22025,-2.07526 0.22406,-2.01816 -0.1407,-2.1097 -0.63135,-0.15847 -1.92397,-0.83076 -2.36723,-1.23122 -0.50907,-0.45991 -0.81454,-1.17976 -0.81277,-1.91529 0.002,-0.5585 0.43984,-1.53746 0.86638,-1.93417 0.45071,-0.41919 1.52104,-0.9337 2.24475,-1.07904 0.3422,-0.0687 0.64726,-0.19029 0.6779,-0.27015 0.12529,-0.32648 -0.33419,-1.41277 -1.03426,-2.44524 -0.90904,-1.34064 -1.3368,-2.53645 -1.67489,-3.70332 -0.22712,-0.78388 -0.21138,-1.112 -0.15752,-2.30973 0.0897,-1.99419 0.30377,-3.26038 1.32493,-4.63786 1.02169,-1.37816 1.86453,-2.01863 3.40439,-2.58692 1.55434,-0.57364 4.3354,-0.60873 5.99756,-0.0756 2.14493,0.68788 3.61044,1.99887 4.59096,4.10693 0.31552,0.67832 0.35158,0.87306 0.39249,2.11958 0.0637,1.94081 -0.41227,4.04377 -1.3326,5.88785 -0.6701,1.34265 -1.34363,3.06061 -1.37226,3.50021 l -0.0301,0.46253 0.61625,0.1603 c 1.57741,0.41032 2.47862,1.46839 2.47862,2.91003 0,0.40083 -0.0796,0.78315 -0.2207,1.05969 -0.2866,0.56178 -1.16074,1.25123 -2.08381,1.64353 l -0.73409,0.312 v 1.81581 c 0,2.14294 0.36273,4.66782 0.88604,6.16751 0.53354,1.52899 1.20677,3.09016 1.59039,3.68798 0.29817,0.46466 0.41772,0.56188 0.69093,0.56188 0.1817,0 0.51827,0.0966 0.74792,0.21477 1.49226,0.76758 1.95393,2.75716 0.90617,3.90516 -0.21391,0.23437 -0.21363,0.24472 0.0226,0.84406 0.3518,0.89286 1.37763,2.197437 3.12877,3.978987 0.85395,0.86877 1.70624,1.80748 1.89397,2.08602 0.50363,0.74721 0.82466,1.70615 0.82466,2.46332 0,0.77469 -0.1463,1.25091 -0.58055,1.88977 -0.40713,0.59895 -0.40218,0.81587 0.0279,1.22475 0.58234,0.55366 0.68527,0.87182 0.73641,2.27622 l 0.0469,1.29107 -0.48113,0.4484 c -0.61711,0.57511 -3.85394,2.15741 -5.69508,2.78399 -1.35599,0.46146 -2.65997,0.75571 -4.79598,1.08222 -1.36736,0.20901 -6.23238,0.29762 -8.27795,0.15077 z m -1.81224,-2.46656 c 0,-0.67057 0.18719,-0.90133 1.30583,-0.77739 4.13427,0.45324 8.0424,0.28543 11.64797,-0.50011 0.73724,-0.16064 3.07059,-0.90982 3.30578,-1.06142 0.0697,-0.0449 0.83571,-0.39113 1.70228,-0.76936 l 1.57557,-0.68768 0.0867,0.46186 c 0.0477,0.25403 0.11719,0.7269 0.15445,1.05083 0.11314,0.98339 0.26528,0.54296 0.26528,-0.76795 0,-0.91025 -0.0385,-1.24961 -0.14651,-1.29106 -0.0806,-0.031 -1.1061,0.36938 -2.27895,0.88956 -4.12124,1.82783 -7.13556,2.46932 -11.64214,2.47758 -2.63987,0.004 -4.03478,-0.11705 -7.42768,-0.64911 -1.95804,-0.30705 -6.03443,-1.52458 -6.24496,-1.86525 -0.0389,-0.0629 -0.17196,-0.11425 -0.29584,-0.11425 -0.21516,0 -0.22178,0.049 -0.14805,1.09727 0.11012,1.56555 0.19439,1.9976 0.38967,1.9976 0.13237,0 0.17219,-0.2207 0.19792,-1.09727 0.0372,-1.26828 -0.004,-1.23766 1.17585,-0.87323 0.70915,0.21903 0.72474,0.23221 0.69866,0.59083 -0.0762,1.04758 7.41668,3.68454 8.56648,3.82008 0.105,0.0135 -2.88831,-1.93153 -2.88831,-1.93153 z m -9.14051,-1.5102 c -0.13757,-0.35853 -0.19984,-1.73313 -0.0985,-2.17399 0.12593,-0.54768 -0.0265,-0.87023 -0.3791,-0.80258 -0.19878,0.0381 -0.22037,0.16011 -0.24915,1.40757 -0.0261,1.1315 -5.9e-4,1.39677 0.14871,1.54608 0.22708,0.22707 0.66301,0.24436 0.57802,0.023 z m 17.64892,-1.08508 c 3.06916,-0.26053 5.60244,-0.9365 7.76532,-2.07204 2.07364,-1.08869 2.81878,-1.74549 3.44256,-3.03439 0.54507,-1.12624 0.53436,-1.82045 -0.041,-2.65629 -0.65222,-0.94751 -1.2455,-1.63881 -2.86188,-3.33463 -1.65288,-1.734107 0.10978,0.91362 -0.47203,-0.31614 l -2.34995,-3.746197 0.32799,-0.3802 c 0.40773,-0.47266 0.47397,-0.72161 0.41369,-1.55497 -0.0778,-1.07537 -0.88899,-1.91881 -1.84632,-1.91968 -0.56026,-5.1e-4 -0.68236,-0.12264 -1.23865,-1.2389 -1.3441,-2.69703 -2.12045,-6.33058 -2.0979,-9.81865 0.009,-1.37632 -0.0108,-1.54724 -0.1783,-1.54572 -0.47721,0.004 -0.50874,0.12741 -0.43667,1.70406 0.12228,2.67481 0.49096,5.13306 1.10731,7.3833 0.24937,0.91038 1.45044,3.50897 1.72853,3.73977 0.0885,0.0735 0.37817,0.16139 0.64366,0.1954 1.62025,0.20754 2.24046,1.41317 1.44259,2.80429 -0.18273,0.3186 -0.46079,0.68038 -0.61792,0.80398 -0.3707,0.29159 -0.36209,0.3958 0.0257,0.31063 0.29532,-0.0649 2.27773,2.865197 2.68651,3.695427 0.87347,1.77408 -0.0327,0.24602 1.78874,2.00419 1.60709,1.55122 1.93257,2.26574 1.58177,3.47244 -0.33916,1.1667 -1.47301,2.14973 -3.63457,3.15116 -2.97754,1.37945 -6.84104,2.00312 -11.52495,1.86043 -2.02237,-0.0616 -2.72182,-0.13011 -4.14791,-0.4062 -3.5953,-0.69602 -5.413,-1.24872 -7.57656,-2.30371 -2.06831,-1.00855 -2.66987,-2.27716 -1.86796,-3.93927 0.21605,-0.44781 0.51253,-0.75297 1.45206,-1.49463 1.73089,-1.36632 2.90833,-2.56313 3.40671,-3.46271 0.4227,-0.763007 0.83811,-2.190517 0.70168,-2.411267 -0.16425,-0.26576 -0.36249,-0.0781 -0.50219,0.47549 -0.1902,0.75362 -0.51003,1.441847 -1.0329,2.222677 -0.50995,0.7615 -1.09297,1.31934 -2.40557,2.30162 -1.17374,0.87836 -1.68631,1.43275 -2.17876,2.35652 -0.29788,0.55878 -0.35341,0.78485 -0.35341,1.43864 0,1.43791 0.51819,2.06502 2.63292,3.18632 1.56041,0.82738 4.00023,1.52834 7.83337,2.25057 1.9405,0.36561 5.83521,0.49507 8.38429,0.27868 z m -3.82854,-3.48196 c 0.11322,-0.1251 0.18535,-0.22973 0.16027,-0.23251 -0.0251,-0.003 -0.40008,-0.0294 -0.83336,-0.0592 -2.04904,-0.14082 -4.30812,-0.51529 -6.41483,-1.06336 -1.50982,-0.39279 -2.0129,-0.56812 -3.07269,-1.07092 -0.45204,-0.21444 -0.93569,-0.38991 -1.07476,-0.38991 -0.27829,0 -0.52298,0.19205 -0.52298,0.41048 0,0.27378 1.88843,1.04421 3.82638,1.56108 0.40233,0.1073 0.93409,0.2616 1.18169,0.34288 0.24758,0.0813 0.70337,0.18581 1.01286,0.23228 0.62369,0.0936 0.62301,0.0936 1.57557,0.20329 0.37138,0.0428 0.85249,0.11528 1.06914,0.16114 0.21664,0.0458 0.95481,0.0944 1.64038,0.10779 1.12547,0.022 1.26648,0.002 1.45233,-0.20304 z m -13.15608,-3.21293 c 0.10362,-0.21838 0.51115,-0.69278 0.90561,-1.05423 0.39446,-0.36145 0.7172,-0.69334 0.7172,-0.73754 0,-0.1237 -0.79905,0.38179 -1.21968,0.77158 -0.35947,0.33312 -0.80605,1.05348 -0.80605,1.3002 0,0.25258 0.2241,0.0968 0.40292,-0.28001 z m 23.82429,0.88692 c 0,-0.0813 1.87899,-0.96486 0.86753,-0.78209 -0.96924,0.17512 -1.68965,-1.74553 -1.84578,-3.07402 -0.0495,-0.42135 -0.938,-0.76341 -0.97186,-0.79727 -0.0339,-0.0339 -0.20399,-0.0128 -0.37807,0.0466 -0.26756,0.0914 -0.31367,0.16554 -0.29802,0.47941 0.0102,0.20422 0.0685,0.47736 0.12968,0.60698 0.0612,0.12963 0.22734,0.56487 0.36932,0.96721 0.586,1.66058 1.29456,2.70097 1.8395,2.70097 0.16249,0 0.2877,-0.0643 0.2877,-0.14775 z m -7.32031,-7.467067 c 0.56754,-0.12387 1.08511,-0.28244 1.15016,-0.35238 0.0868,-0.0933 0.0371,-0.10808 -0.18641,-0.0554 -0.45694,0.10758 -2.97209,0.29157 -3.77771,0.27634 -0.38839,-0.007 -0.74143,0.0219 -0.78453,0.0651 -0.34666,0.34667 3.59849,0.0665 3.59849,0.0665 z m -2.27661,-2.06686 c 0,0 6.95745,-1.26723 6.25787,-1.32399 -4.07391,-0.34484 -1.37477,-0.34511 -1.32543,-0.39418 0.23197,-0.23154 -4.70766,0.10506 -4.83806,0.41558 -0.20002,0.47619 -0.3359,0.53692 -0.69695,0.31145 -0.25674,-0.16034 -0.59313,-0.0138 -0.6518,0.28408 -0.0472,0.2397 0.89838,-0.0493 2.3648,0.37525 1.8945,0.54846 -1.11043,0.33181 -1.11043,0.33181 z m -10.11984,-0.82085 c -0.39509,-1.42286 0.35776,-2.50792 1.93841,-2.79378 l 0.69166,-0.12509 0.25533,-0.74424 c 0.50748,-1.47927 1.37444,-4.674 1.59711,-5.88526 0.427,-2.32294 0.61353,-6.02093 0.30369,-6.02093 -0.21211,0 -0.2934,0.25079 -0.2934,0.90511 0,1.49733 -0.49877,4.6941 -1.08792,6.97274 -0.33818,1.30804 -1.26341,4.17265 -1.40448,4.34845 -0.0566,0.0705 -0.31874,0.18254 -0.58263,0.24899 -0.6797,0.17115 -1.3954,0.68753 -1.72955,1.24786 -0.34925,0.58567 -0.32171,1.32974 0.0729,1.96813 0.31091,0.50308 0.39989,0.45766 0.23894,-0.12198 z m 12.16345,-6.5326 c 0.12987,-0.3416 0.22269,-2.53868 0.29291,-3.53633 0.0304,-0.43328 -0.19465,-1.11997 -0.15489,-1.87658 0.0805,-1.53219 -4.45075,-1.75617 -5.35078,-1.87639 -0.62802,-0.0839 4.02049,0.62007 3.83651,3.02697 -0.0686,0.89751 0.13474,1.62698 -0.0865,2.86492 -0.22125,1.23796 -0.0599,2.20388 -0.0684,2.29503 -0.0111,0.11888 0.19119,0.20246 0.71599,0.29574 0.40233,0.0715 0.74542,0.13622 0.76243,0.14377 0.017,0.008 -0.002,-1.19567 0.0528,-1.33713 z m -8.68351,-10.37516 c 0,-0.0553 -0.0773,-0.13016 -0.17179,-0.16642 -0.24058,-0.0923 -0.61649,-1.02051 -0.61353,-1.51492 0.003,-0.47099 0.3179,-1.23511 0.60841,-1.47556 0.10801,-0.0894 0.40724,-0.19069 0.66494,-0.22509 0.37701,-0.0503 0.47559,-0.11202 0.50452,-0.31575 0.0326,-0.22984 -0.01,-0.25322 -0.46165,-0.25322 -0.60288,0 -1.09077,0.30506 -1.58138,0.9888 -0.28073,0.39123 -0.35494,0.62065 -0.39274,1.21428 -0.052,0.8163 0.0161,0.94415 0.81299,1.52724 0.45392,0.33212 0.63023,0.39385 0.63023,0.22064 z m 8.54171,-1.27156 c -0.0866,-0.0322 -0.76515,-0.0133 -1.50791,0.0419 -0.0363,0.0615 2.59456,0.81309 3.46779,-0.42847 0.0375,-0.15636 -6.45541,-0.41825 -5.94623,-0.37985 0.77087,0.0581 1.92238,0.0599 2.70997,0.004 1.1444,-0.0811 1.50951,-0.15533 2.22123,-0.45162 1.38037,-0.57466 1.48274,-0.95683 0.13531,-0.50519 -3.2295,-4.13112 -12.80368,3.20376 -4.63129,1.52449 -0.38864,1.34085 3.73918,0.26457 3.55113,0.19467 z m 4.08144,0.4436 c 0.59193,-0.80073 0.6719,-1.31135 0.32502,-2.07539 -0.21039,-0.46343 -0.86395,-0.93506 -1.29572,-0.93506 -0.26952,0 -0.21231,0.1053 0.33314,0.61325 0.42565,0.39638 0.50842,0.54215 0.51889,0.91391 0.0191,0.67774 -0.0168,0.9316 -0.19038,1.34706 -0.18681,0.44713 -0.19343,0.50199 -0.0605,0.50199 0.0546,0 0.22086,-0.16459 0.36956,-0.36576 z m -2.37422,-3.74198 c 0.0697,-1.10381 0.31484,-1.9311 1.00022,-3.37621 1.37467,-2.89842 1.60265,-3.75351 1.61322,-6.05058 0.14667,-1.01655 -0.0488,-1.65931 -0.48938,-2.52813 -1.29886,-2.56163 -3.60827,-3.81667 -6.97549,-3.79081 -1.38839,0.0107 -2.33539,0.2218 -3.52841,0.78667 -1.37738,0.65215 -2.12538,1.90251 -2.86829,3.96935 -0.15309,0.42589 -0.21132,0.86159 -0.20894,1.88373 0.004,1.86795 0.15448,3.10059 1.09431,4.7169 1.30064,2.23682 1.72756,3.2366 1.86283,4.36244 0.11192,0.93151 0.27671,0.91074 0.27671,-0.0349 0,-1.07415 -0.25129,-1.99967 -0.83887,-3.08962 -1.0981,-2.037 -1.22087,-2.26119 -1.36687,-2.49613 -0.32291,-0.51961 -0.47432,-1.93044 -0.5389,-3.21546 -0.0585,-1.16397 0.0112,-1.37611 0.2423,-2.07218 0.79458,-2.39343 1.69968,-3.4982 3.85282,-4.08758 0.74043,-0.20268 1.23635,-0.26074 2.19455,-0.25695 2.98465,0.0118 5.02459,1.06715 6.18557,3.20004 0.46684,0.85765 0.58758,1.22152 0.7283,2.19486 0.20122,1.39182 -0.29737,3.39644 -1.43681,5.7768 -0.80992,1.69198 -1.20126,2.99746 -1.327,4.42671 -0.0668,0.75986 -0.0645,0.76868 0.19822,0.73152 0.25135,-0.0356 0.26939,-0.093 0.32989,-1.05049 z m -0.66478,-8.66554 c 0.0827,0 0.15748,0.12785 0.25338,0.12785 0.12757,0 0.15629,-0.0721 0.10699,-0.26848 -0.0419,-0.1668 -0.007,-0.31909 0.0937,-0.40212 0.0886,-0.0735 0.13331,-0.2059 0.0994,-0.29423 -0.0423,-0.10992 0.0187,-0.16058 0.19295,-0.16058 0.62062,0 -0.29311,-0.13771 -0.01,-0.66746 0.15574,-0.29101 -0.29412,-0.50986 -0.20957,-1.25859 -1.30868,-0.40029 -1.59958,-0.33026 -2.67276,-0.21222 -0.35718,0 -0.82736,0.47101 -0.82736,0.82882 0,0.16312 0.0522,0.29658 0.11608,0.29658 0.22352,0 1.06323,0.51999 0.85516,0.74991 -0.20614,0.22777 -0.48385,0.0754 -0.73186,0.30224 -0.15469,0.14151 0.65205,1.2007 0.72154,1.33527 0.15948,0.30876 0.42034,0.10479 0.88515,-0.24742 0.19167,6.7e-4 0.42444,0.0502 0.51729,0.10959 0.30826,0.19698 0.32303,-0.23916 0.60951,-0.23916 z"
         id="path2-2"
         sodipodi:nodetypes="sssscsscssssscssscsssssssssssssssssscsssscssssssssssssscsssssssssscssssscssssssssccssssssssssssscssssscssssssssssssssssssssssssssssscssssssssssssssssssssssssssssssssscscsscssssssscsssssssssssscssssssssscsssssssssssssssscscssssssscssscsscsssssscsssssssccssscssscsssssscsssscss"
         transform="matrix(1.8515749,0,0,1.8515749,-189.90159,2.9304994)" /><path
         style="mix-blend-mode:normal;fill:#00bc1d;fill-opacity:1;stroke-width:0.491926;filter:url(#filter3)"
         d="m 157.73014,182.26014 c -1.70712,-0.82171 -1.53678,-0.50462 -1.68842,-3.14296 -0.0931,-1.61908 -0.0845,-1.75877 0.13124,-2.1537 l 0.23077,-0.42234 -0.24619,-0.34575 c -0.22508,-0.31606 -0.2462,-0.4947 -0.2462,-2.08131 v -1.73556 l 0.69574,-0.86485 c 0.38265,-0.47567 1.17476,-1.24217 1.76023,-1.70332 0.58546,-0.46115 1.36389,-1.07491 1.72982,-1.36392 0.53164,-0.41988 0.76734,-0.7226 1.17309,-1.50657 0.27927,-0.5396 0.61544,-1.26505 0.74703,-1.61209 l 0.23926,-0.63099 -0.33175,-0.35012 c -0.91572,-0.96643 -1.00653,-2.24276 -0.245,-3.44357 0.27323,-0.43083 0.50185,-0.60452 1.34432,-1.02133 l 1.01512,-0.50222 0.47123,-1.15425 c 0.83972,-2.0568 1.6333,-5.56474 1.96418,-8.68262 0.22589,-2.12844 0.2298,-2.06988 -0.14432,-2.16377 -0.64753,-0.16252 -1.97327,-0.85205 -2.42788,-1.26277 -0.52211,-0.4717 -0.83542,-1.20999 -0.8336,-1.96438 0.002,-0.57281 0.4511,-1.57685 0.88858,-1.98373 0.46226,-0.42993 1.56002,-0.95763 2.30228,-1.10669 0.35097,-0.0705 0.66383,-0.19517 0.69526,-0.27707 0.1285,-0.33485 -0.34275,-1.44898 -1.06076,-2.50791 -0.93233,-1.37499 -1.55234,-2.62159 -1.89909,-3.81836 -0.23294,-0.80397 -0.25707,-1.08007 -0.20184,-2.3085 0.092,-2.0453 0.53311,-3.38422 1.58044,-4.79699 1.04787,-1.41349 1.91231,-2.07037 3.49163,-2.65322 1.59418,-0.58834 4.44651,-0.62433 6.15126,-0.0776 2.1999,0.7055 3.70296,2.05008 4.70862,4.21217 0.3236,0.69571 0.36058,0.89543 0.40254,2.1739 0.0653,1.99055 -0.42283,4.1474 -1.36675,6.03873 -0.68727,1.37706 -1.37806,3.13905 -1.40743,3.58991 l -0.0309,0.47439 0.63203,0.1644 c 1.61783,0.42084 2.54215,1.50603 2.54215,2.98461 0,0.4111 -0.0817,0.80322 -0.22636,1.08685 -0.29395,0.57617 -1.19048,1.28329 -2.13721,1.68565 l -0.7529,0.31999 v 1.86234 c 0,2.19786 0.37202,4.78744 0.90875,6.32556 0.5472,1.56818 1.23769,3.16936 1.63114,3.7825 0.30581,0.47656 0.42842,0.57627 0.70864,0.57627 0.18635,0 0.53154,0.0991 0.76708,0.22028 1.53051,0.78725 2.00401,2.82782 0.92939,4.00524 -0.21938,0.24037 -0.2191,0.25099 0.0231,0.86568 0.36082,0.91574 1.41294,2.25376 3.20896,4.08096 0.87583,0.89104 1.74995,1.8538 1.94251,2.13948 0.51653,0.76635 0.84579,1.74986 0.84579,2.52645 0,0.79454 -0.15005,1.28296 -0.59542,1.93819 -0.41757,0.6143 -0.4125,0.83677 0.0287,1.25614 0.59726,0.56785 0.70283,0.89416 0.75528,2.33455 l 0.0481,1.32416 -0.49346,0.45988 c -0.63292,0.58985 -3.9527,2.2127 -5.84103,2.85533 -1.39073,0.47329 -2.72813,0.77508 -4.91887,1.10996 -0.38412,0.0587 -10.61602,1.56869 -19.59888,-2.75511 z m 10.58939,-0.41734 c 4.24022,0.46485 8.24851,0.29275 11.94646,-0.51293 0.75615,-0.16475 3.1493,-0.93313 3.3905,-1.08862 0.0714,-0.046 0.85713,-0.40115 1.74591,-0.78907 l 1.61594,-0.7053 0.0889,0.47369 c 0.0489,0.26054 0.12019,0.74553 0.15842,1.07776 0.11603,1.00859 0.27206,0.55687 0.27206,-0.78763 0,-0.93358 -0.0395,-1.28164 -0.15025,-1.32414 -0.0827,-0.0318 -1.13445,0.37884 -2.33735,0.91235 -4.22686,1.87467 -7.31843,2.5326 -11.9405,2.54108 -2.70752,0.004 -4.13817,-0.12006 -7.61803,-0.66575 -2.00821,-0.31492 -6.18906,-1.56366 -6.40499,-1.91306 -0.0399,-0.0645 -0.17637,-0.11717 -0.30342,-0.11717 -0.22067,0 -0.22747,0.0503 -0.15185,1.12539 0.11294,1.60567 0.19938,2.04879 0.39966,2.04879 0.13578,0 0.1766,-0.22635 0.20299,-1.12538 0.0382,-1.30079 -0.004,-1.26938 1.206,-0.89562 0.72731,0.22464 0.74331,0.23817 0.71655,0.60598 -0.0738,1.01544 6.01569,1.01251 7.163,1.13963 z m -10.71404,-0.75159 c -0.1411,-0.36772 -0.20497,-1.77754 -0.101,-2.2297 0.12916,-0.56172 -0.0271,-0.89253 -0.38883,-0.82315 -0.20386,0.0391 -0.22602,0.16421 -0.25553,1.44365 -0.0268,1.16049 -6.1e-4,1.43256 0.15253,1.58569 0.23289,0.23289 0.68,0.25062 0.59283,0.0236 z m 18.1012,-1.11289 c 3.14782,-0.2672 5.74601,-0.96049 7.96431,-2.12514 2.1268,-1.11659 2.89103,-1.79021 3.5308,-3.11215 0.55904,-1.1551 0.54805,-1.8671 -0.0421,-2.72436 -0.66893,-0.97179 -1.27741,-1.6808 -2.93521,-3.42008 -1.69524,-1.77855 -1.88138,-2.02544 -2.4781,-3.28671 l -0.4162,-0.87974 0.33639,-0.38994 c 0.41818,-0.48477 0.48612,-0.7401 0.4243,-1.59482 -0.0798,-1.10293 -0.91178,-1.96798 -1.89364,-1.96887 -0.57462,-5.3e-4 -0.69985,-0.12579 -1.2704,-1.27065 -1.37853,-2.76615 -2.17479,-6.49282 -2.15165,-10.07027 0.009,-1.41159 -0.0111,-1.5869 -0.18287,-1.58533 -0.48944,0.004 -0.52179,0.13067 -0.44786,1.74772 0.12541,2.74336 0.50353,5.26461 1.13568,7.57251 0.25576,0.93372 1.48761,3.5989 1.77283,3.83561 0.0908,0.0754 0.38786,0.16553 0.66015,0.20041 1.66177,0.21285 2.29787,1.44938 1.47956,2.87615 -0.18741,0.32676 -0.4726,0.69782 -0.63375,0.82459 -0.38021,0.29906 -0.37138,0.40594 0.0263,0.31859 0.30288,-0.0666 0.34212,-0.0238 0.76139,0.82766 0.89585,1.81955 1.96037,3.21479 3.82855,5.01802 1.64827,1.59097 1.9821,2.3238 1.62231,3.56143 -0.34786,1.19659 -1.51077,2.20482 -3.72771,3.23191 -3.05385,1.4148 -7.01636,2.05446 -11.8203,1.90811 -2.0742,-0.0632 -2.79157,-0.13344 -4.25421,-0.41661 -3.68744,-0.71386 -5.55171,-1.28072 -7.77073,-2.36275 -2.12131,-1.0344 -2.73828,-2.33551 -1.91582,-4.04022 0.22159,-0.45929 0.52566,-0.77227 1.48927,-1.53293 1.77525,-1.40133 2.98286,-2.62881 3.49401,-3.55145 0.43353,-0.78256 0.85959,-2.24666 0.71967,-2.47306 -0.16846,-0.27258 -0.37179,-0.0801 -0.51507,0.48768 -0.19507,0.77293 -0.5231,1.47879 -1.05937,2.27963 -0.52301,0.78102 -1.12098,1.35315 -2.46722,2.3606 -1.20381,0.90088 -1.72952,1.46947 -2.23459,2.41692 -0.30551,0.5731 -0.36247,0.80495 -0.36247,1.4755 0,1.47477 0.53148,2.11794 2.70039,3.26797 1.60041,0.84859 4.10275,1.56752 8.03412,2.30825 1.99024,0.37498 5.98475,0.50776 8.59915,0.28582 z m -15.44995,-6.45923 c -0.27841,-0.0629 -0.53638,0.19697 -0.53638,0.42099 0,1.73503 19.43657,3.84995 0.53638,-0.42099 z m -1.96992,-0.40723 c 0.10627,-0.22397 0.52425,-0.71053 0.92881,-1.08124 0.40456,-0.37072 0.73557,-0.71111 0.73557,-0.75645 0,-0.12686 -0.81953,0.39159 -1.25093,0.79137 -0.36869,0.34165 -0.8267,1.08047 -0.8267,1.33351 0,0.25906 0.22983,0.0993 0.41325,-0.28719 z m 22.44085,-2.05281 c 0,-0.0834 1.92715,-0.98958 0.88977,-0.80213 -0.99408,0.17961 -1.73296,-1.79027 -1.89309,-3.1528 -0.0508,-0.43215 -0.96203,-0.78297 -0.99676,-0.8177 -0.0348,-0.0348 -0.20922,-0.0132 -0.38776,0.0478 -0.27442,0.0937 -0.3217,0.16979 -0.30566,0.4917 0.0105,0.20945 0.0703,0.48959 0.133,0.62254 0.0627,0.13295 0.23317,0.57934 0.37879,0.99198 0.60102,1.70314 1.32774,2.7702 1.88664,2.7702 0.16664,0 0.29506,-0.0659 0.29506,-0.15154 z m -0.86095,-7.604 c -4.17831,-0.35368 0.71751,0.0582 0,0 z m -17.36712,-0.0537 c -0.40521,-1.45933 0.36693,-2.57219 1.98808,-2.86538 l 0.7094,-0.12829 0.26186,-0.76332 c 0.52049,-1.51718 1.40967,-4.79378 1.63804,-6.03608 0.43795,-2.38246 0.62925,-6.17523 0.31147,-6.17523 -0.21754,0 -0.30091,0.25722 -0.30091,0.92831 0,1.5357 -0.51155,4.8144 -1.11579,7.15143 -0.34686,1.34156 -1.29581,4.27958 -1.44049,4.45989 -0.058,0.0723 -0.32691,0.18721 -0.59756,0.25536 -0.69712,0.17554 -1.43116,0.70515 -1.77387,1.27984 -0.3582,0.60068 -0.32995,1.36382 0.0747,2.01857 0.31889,0.51598 0.41015,0.46939 0.24507,-0.1251 z m 12.47515,-6.70001 c 0.1332,-0.35036 0.28538,-1.97707 0.35739,-3.00028 0.0312,-0.44438 -0.2566,-1.77535 -0.21582,-2.55135 0.0826,-1.57145 2.39909,-3.47619 1.476,-3.59948 -0.64412,-0.0861 -2.84038,2.31097 -3.02909,4.77954 -0.0704,0.92052 0.1382,1.66868 -0.0887,2.93835 -0.22692,1.26968 -0.0615,2.26036 -0.0702,2.35384 -0.0114,0.12193 0.19609,0.20765 0.73433,0.30332 0.41265,0.0733 0.76453,0.13971 0.78198,0.14745 0.0174,0.008 -0.002,-1.22631 0.0541,-1.37139 z m -8.90603,-10.64104 c 0,-0.0567 -0.0793,-0.1335 -0.17619,-0.17069 -0.24675,-0.0947 -0.63229,-1.04666 -0.62926,-1.55374 0.003,-0.48306 0.32605,-1.26677 0.62401,-1.51338 0.11077,-0.0917 0.41767,-0.19557 0.68198,-0.23085 0.38667,-0.0516 0.48778,-0.11489 0.51745,-0.32385 0.0335,-0.23572 -0.0102,-0.2597 -0.47349,-0.2597 -0.61832,0 -1.11872,0.31288 -1.62191,1.01414 -0.28792,0.40125 -0.36403,0.63656 -0.4028,1.2454 -0.0533,0.83722 0.0165,0.96833 0.83383,1.56637 0.46555,0.34064 0.64638,0.40394 0.64638,0.2263 z m 8.76061,-1.30415 c -0.0888,-0.033 -0.78475,-0.0136 -1.54656,0.043 -1.51441,0.11264 3.5043,0.35973 3.00696,0.16472 -0.26623,-0.1044 0.48844,-0.34831 0.5497,-0.60418 0.04,-0.16714 -7.49894,-0.45749 -7.48988,-0.47019 0.009,-0.0127 0.63512,0.0236 1.39127,0.0806 0.79062,0.0596 1.97164,0.0614 2.77941,0.004 1.17373,-0.0832 1.5482,-0.15931 2.27816,-0.46319 1.41574,-0.58939 1.52073,-0.98136 0.13877,-0.51814 -1.8635,0.62462 -5.11959,0.67216 -6.86867,0.10027 -0.77005,-0.25177 -1.53865,-0.26667 -1.58744,-0.0308 -0.0259,0.1249 0.0826,0.23105 0.321,0.31415 0,0 0.39684,2.01007 3.38514,1.17992 -0.3986,1.37521 3.83501,0.27135 3.64213,0.19966 z m 4.18603,0.45497 c 0.6071,-0.82125 0.68912,-1.34495 0.33335,-2.12858 -0.21578,-0.4753 -0.88608,-0.95902 -1.32892,-0.95902 -0.27643,0 -0.21775,0.108 0.34168,0.62896 0.43656,0.40654 0.52144,0.55605 0.53218,0.93733 0.0196,0.69512 -0.0172,0.95548 -0.19525,1.38159 -0.19162,0.45858 -0.19839,0.51485 -0.0621,0.51485 0.056,0 0.22652,-0.16881 0.37904,-0.37513 z m -2.43506,-3.83787 c 0.0715,-1.13211 0.3229,-1.98059 1.02585,-3.46274 1.40989,-2.97269 1.64372,-3.8497 1.65456,-6.20563 0.15043,-1.0426 -0.0501,-1.70184 -0.50192,-2.59293 -1.33215,-2.62727 -3.70075,-3.91447 -7.15425,-3.88795 -1.42397,0.011 -2.39524,0.22748 -3.61883,0.80684 -1.41268,0.66886 -2.38128,1.91097 -3.14321,4.03078 -0.15702,0.43681 -0.20666,0.91388 -0.20423,1.96222 0.004,1.91582 0.3498,3.19011 1.31371,4.84784 1.33397,2.29415 1.77183,3.31955 1.91057,4.47424 0.11478,0.95538 0.2838,0.93408 0.2838,-0.0358 0,-1.10168 -0.25773,-2.05092 -0.86037,-3.1688 -1.12624,-2.0892 -1.25216,-2.31913 -1.4019,-2.5601 -0.33119,-0.53292 -0.63754,-1.95976 -0.70378,-3.27772 -0.06,-1.1938 -0.0389,-1.42144 0.19816,-2.13535 0.81494,-2.45476 1.94465,-3.59792 4.15297,-4.20241 0.7594,-0.20787 1.26803,-0.26742 2.25079,-0.26353 3.06114,0.0121 5.15335,1.0945 6.34409,3.28205 0.4788,0.87963 0.60263,1.25283 0.74696,2.2511 0.20637,1.4275 -0.30499,3.48349 -1.47364,5.92485 -0.83067,1.73534 -1.23204,3.07427 -1.361,4.54015 -0.0685,0.77933 -0.0661,0.78838 0.2033,0.75026 0.25779,-0.0365 0.2763,-0.0954 0.33834,-1.0774 z m -0.65054,-5.73078 c 0.0446,0.0722 0.16152,0.13113 0.25987,0.13113 0.13084,0 0.1603,-0.0739 0.10973,-0.27536 -0.043,-0.17107 -0.007,-0.32726 0.096,-0.41243 0.0908,-0.0754 0.13673,-0.21118 0.10197,-0.30176 -0.0433,-0.11274 0.0192,-0.1647 0.19788,-0.1647 0.63653,0 -0.30061,-0.14125 -0.01,-0.68457 0.15974,-0.29846 -0.30165,-0.52293 -0.21492,-1.29084 -1.34222,-0.41054 -1.64058,-0.33872 -2.74127,-0.21766 -0.36633,0 -0.84856,0.48308 -0.84856,0.85006 0,0.1673 0.0536,0.30418 0.11906,0.30418 0.22925,0 1.09047,0.53332 0.87707,0.76913 -0.21142,0.23361 -0.49625,0.0773 -0.75062,0.30999 -0.15865,0.14513 0.66876,1.23147 0.74004,1.36948 0.16356,0.31668 0.43111,0.10748 0.90783,-0.25376 0.19658,6.9e-4 0.43532,0.0515 0.53054,0.1124 0.31617,0.20203 0.47065,-0.49522 0.62513,-0.24529 z"
         id="path2-2-8"
         sodipodi:nodetypes="ssscsscssssscssscsssssssssssssssssscsssscssssssssssssscsssssssscssssscssssssssssssssssssssscssssscssssssssssssssssssssssssssssssssssssssssssssssssccscsssssssssssssssssssssssssssssssssscsssssscsssscssssssscsssssscsssssscsssssssccssscssscsssssscsssscc"
         transform="matrix(2,0,0,2,-162.86822,-175.26083)" /><path
         style="fill:#bc0000;fill-opacity:1;stroke-width:0.983852"
         d="m 225.84074,211.44847 c -9.14342,-0.65642 -17.04598,-2.72634 -24.96976,-6.54038 -3.83716,-1.84698 -3.45428,-1.13426 -3.79514,-7.06458 -0.20918,-3.63928 -0.19,-3.95326 0.29502,-4.84098 l 0.5187,-0.9493 -0.55338,-0.77716 c -0.5059,-0.71044 -0.5534,-1.11196 -0.5534,-4.67826 v -3.9011 l 1.56386,-1.94398 c 0.8601,-1.06918 2.64056,-2.79208 3.95654,-3.82862 1.31598,-1.03656 3.06568,-2.41614 3.8882,-3.06576 1.195,-0.94378 1.72482,-1.62422 2.63682,-3.38638 0.62774,-1.2129 1.38336,-2.84352 1.67914,-3.62358 l 0.53782,-1.4183 -0.74572,-0.787 c -2.05832,-2.17228 -2.26242,-5.04114 -0.55068,-7.74028 0.61412,-0.96838 1.12802,-1.3588 3.02168,-2.29568 l 2.28172,-1.12886 1.05922,-2.59446 c 1.8875,-4.62318 3.67124,-12.50814 4.41498,-19.51636 0.50774,-4.7842 0.51652,-4.65256 -0.32438,-4.8636 -1.45548,-0.36532 -4.43542,-1.9152 -5.45728,-2.8384 -1.17358,-1.06026 -1.8778,-2.71976 -1.87372,-4.41542 0.004,-1.28754 1.01398,-3.54438 1.9973,-4.45894 1.03906,-0.96638 3.50654,-2.1525 5.17494,-2.48756 0.7889,-0.1584 1.49216,-0.43868 1.5628,-0.62278 0.28884,-0.75266 -0.77042,-3.25694 -2.38434,-5.63714 -2.09566,-3.09064 -3.48926,-5.89268 -4.26868,-8.582719 -0.52358,-1.80712 -0.57784,-2.42774 -0.45368,-5.18892 0.20676,-4.59732 1.19832,-7.60688 3.55244,-10.78244 2.35536,-3.17716 4.2984,-4.65366 7.84832,-5.96376 3.5833,-1.32244 9.99462,-1.40334 13.82648,-0.1744 4.94482,1.5858 8.32332,4.60808 10.58378,9.4679 0.72738,1.56378 0.8105,2.01272 0.90482,4.88638 0.1468,4.47426 -0.95042,9.32232 -3.07212,13.573559 -1.5448,3.09528 -3.09752,7.05578 -3.16354,8.06922 l -0.0694,1.0663 1.42066,0.36954 c 3.63648,0.94594 5.7141,3.38516 5.7141,6.70864 0,0.92406 -0.1836,1.80544 -0.5088,2.44296 -0.66072,1.2951 -2.6759,2.88452 -4.8039,3.78892 l -1.69234,0.71926 v 4.18608 c 0,4.94022 0.83622,10.76096 2.04264,14.21826 1.22998,3.52488 2.78202,7.12392 3.6664,8.5021 0.68738,1.0712 0.96298,1.29532 1.59284,1.29532 0.41888,0 1.19478,0.22282 1.7242,0.49514 3.4402,1.76954 4.5045,6.35622 2.08904,9.00276 -0.49312,0.5403 -0.49248,0.56416 0.052,1.94584 0.81102,2.05836 3.17592,5.06588 7.2129,9.17298 1.96866,2.00282 3.93348,4.16686 4.36628,4.809 1.16104,1.72258 1.90112,3.93328 1.90112,5.67882 0,1.78594 -0.33726,2.88378 -1.33836,4.35658 -0.93858,1.3808 -0.92718,1.88086 0.0644,2.82348 1.3425,1.27638 1.5798,2.00986 1.69768,5.24748 l 0.1082,2.97638 -1.10918,1.03372 c -1.42264,1.32582 -8.88468,4.97358 -13.12916,6.41806 -3.12602,1.06384 -6.13216,1.74218 -11.0564,2.4949 -3.15226,0.48184 -14.36784,0.68612 -19.08358,0.34758 z m -4.17784,-5.6863 c 0,-1.54588 0.43154,-2.07788 3.01038,-1.79214 9.53094,1.04486 18.54056,0.65802 26.85266,-1.15294 1.6996,-0.37032 7.0788,-2.09744 7.62098,-2.44694 0.1606,-0.1034 1.92662,-0.9017 3.92436,-1.77364 l 3.63224,-1.58534 0.1998,1.06474 c 0.11,0.58562 0.27016,1.67576 0.35606,2.42254 0.26084,2.26704 0.61156,1.2517 0.61156,-1.7704 0,-2.09846 -0.0888,-2.8808 -0.33774,-2.97634 -0.1858,-0.0714 -2.54996,0.85154 -5.25378,2.05074 -9.5009,4.21378 -16.44998,5.69264 -26.83922,5.7117 -6.08584,0.01 -9.30158,-0.26986 -17.12342,-1.49644 -4.51396,-0.70786 -13.91146,-3.5147 -14.39682,-4.30006 -0.0896,-0.145 -0.39642,-0.26338 -0.682,-0.26338 -0.49602,0 -0.5113,0.113 -0.34132,2.5296 0.25386,3.60914 0.44814,4.60516 0.89834,4.60516 0.30516,0 0.39694,-0.50878 0.45626,-2.52958 0.0858,-2.92384 -0.01,-2.85324 2.71076,-2.01312 1.63484,0.50494 1.67078,0.53534 1.61064,1.36208 -0.1756,2.41504 17.09806,8.49416 19.74876,8.80662 0.24204,0.031 -6.65858,-4.45286 -6.65858,-4.45286 z m -21.07208,-3.48154 c -0.31716,-0.82654 -0.46072,-3.99546 -0.22704,-5.0118 0.29032,-1.2626 -0.061,-2.00618 -0.87396,-1.85024 -0.45826,0.0878 -0.50804,0.36912 -0.57438,3.24496 -0.0602,2.6085 -10e-4,3.22004 0.34284,3.56424 0.5235,0.52348 1.52846,0.56334 1.33254,0.053 z m 40.68694,-2.50148 c 7.0755,-0.60062 12.91558,-2.15896 17.90178,-4.77678 4.78048,-2.50982 6.49828,-4.02396 7.93632,-6.99534 1.25658,-2.59638 1.23188,-4.19678 -0.0946,-6.12368 -1.50358,-2.18434 -2.8713,-3.77802 -6.59762,-7.68748 -3.81048,-3.99774 -4.22886,-4.55268 -5.57014,-7.3877 l -0.93552,-1.97742 0.75612,-0.8765 c 0.93998,-1.08964 1.09268,-1.66356 0.95372,-3.58476 -0.1794,-2.4791 -2.04944,-4.42352 -4.25642,-4.42552 -1.2916,-0.001 -1.57308,-0.28274 -2.85554,-2.8561 -3.0986,-6.2176 -4.88838,-14.59422 -4.83638,-22.63544 0.0206,-3.1729 -0.025,-3.56694 -0.41104,-3.56342 -1.10014,0.01 -1.17284,0.29372 -1.00668,3.92844 0.2819,6.16638 1.13182,11.83352 2.55274,17.0211 0.57488,2.09876 3.34376,8.08942 3.98486,8.62148 0.20406,0.1694 0.87182,0.37208 1.48386,0.45048 3.73524,0.47844 5.16504,3.25784 3.32568,6.46486 -0.42126,0.73448 -1.06228,1.56852 -1.42452,1.85346 -0.8546,0.67222 -0.83474,0.91246 0.0592,0.71612 0.68082,-0.1496 0.76902,-0.0536 1.7114,1.86038 2.01366,4.08988 4.40644,7.22604 8.60562,11.27924 3.7049,3.5761 4.45526,5.22332 3.64654,8.0052 -0.7819,2.68964 -3.39582,4.95588 -8.37896,7.26452 -6.86428,3.18012 -15.771,4.6179 -26.56906,4.28894 -4.66228,-0.142 -6.27474,-0.29994 -9.56238,-0.93642 -8.28844,-1.60458 -12.47886,-2.87874 -17.46664,-5.31088 -4.76818,-2.32506 -6.15498,-5.24964 -4.3063,-9.0814 0.49808,-1.03236 1.18156,-1.73586 3.34752,-3.44564 3.9903,-3.14984 6.70472,-5.9089 7.85364,-7.98276 0.97448,-1.759 1.93216,-5.04992 1.61764,-5.55882 -0.37866,-0.61268 -0.83568,-0.18 -1.15774,1.09618 -0.43848,1.73736 -1.1758,3.32396 -2.3812,5.12404 -1.1756,1.75554 -2.51968,3.04154 -5.54568,5.30604 -2.70588,2.02494 -3.88754,3.303 -5.0228,5.43262 -0.68672,1.28818 -0.81474,1.80934 -0.81474,3.31656 0,3.3149 1.19462,4.7606 6.0698,7.34558 3.5973,1.9074 9.22194,3.52338 18.05868,5.18836 4.47354,0.84286 13.4522,1.14132 19.32872,0.64246 z m -8.82612,-8.02714 c 0.261,-0.2884 0.42728,-0.52962 0.36948,-0.53602 -0.0578,-0.006 -0.92234,-0.0678 -1.9212,-0.1364 -4.72376,-0.32464 -9.93172,-1.18794 -14.78842,-2.45142 -3.48068,-0.90552 -4.64044,-1.30972 -7.08364,-2.46884 -1.0421,-0.49438 -2.15708,-0.89888 -2.4777,-0.89888 -0.64156,0 -1.20566,0.44274 -1.20566,0.9463 0,0.63114 4.3535,2.40726 8.82116,3.59882 0.92752,0.24738 2.1534,0.60308 2.7242,0.79046 0.57076,0.1874 1.62152,0.42836 2.335,0.5355 1.43784,0.2159 1.43626,0.2157 3.63224,0.46864 0.85618,0.0986 1.9653,0.26578 2.46474,0.3715 0.49944,0.1056 2.20118,0.21754 3.78166,0.24848 2.5946,0.0508 2.91968,0.004 3.34814,-0.46808 z m -30.32938,-7.40694 c 0.23888,-0.50344 1.17838,-1.5971 2.08774,-2.43036 0.90936,-0.83328 1.6534,-1.5984 1.6534,-1.7003 0,-0.28516 -1.8421,0.88018 -2.81178,1.77878 -0.82872,0.76796 -1.85824,2.42864 -1.85824,2.9974 0,0.5823 0.51662,0.22326 0.92888,-0.64552 z m 50.4414,-4.6142 c 0,-0.1874 4.33174,-2.22434 1.99996,-1.803 -2.23444,0.40372 -3.89524,-4.02406 -4.25518,-7.0867 -0.1142,-0.97136 -2.1624,-1.75992 -2.24046,-1.83798 -0.0782,-0.0782 -0.47028,-0.0296 -0.8716,0.1074 -0.61682,0.2107 -0.7231,0.38164 -0.68704,1.10522 0.0236,0.47078 0.158,1.10048 0.29896,1.3993 0.141,0.29884 0.5241,1.30222 0.85142,2.22974 1.35094,3.82822 2.98442,6.2267 4.2407,6.2267 0.37458,0 0.66324,-0.1482 0.66324,-0.34062 z m -12.39394,-10.55534 c 1.30838,-0.28556 2.50156,-0.65114 2.65152,-0.81236 0.20004,-0.21512 0.0856,-0.24916 -0.42974,-0.1278 -1.0534,0.24802 -6.85172,0.67218 -8.70894,0.63706 -0.89538,-0.016 -1.70926,0.0506 -1.80862,0.15 -0.79918,0.79918 4.85742,0.90364 8.29578,0.1532 z m -5.24838,-4.76484 c 0,0 17.31992,-1.64086 15.70714,-1.7717 -9.3918,-0.79498 -4.44988,-2.07616 -4.33614,-2.18928 0.53478,-0.5338 -10.8528,0.2422 -11.15344,0.95804 -0.4611,1.0978 -0.77436,1.2378 -1.6067,0.718 -0.59188,-0.36964 -1.36738,-0.0318 -1.50264,0.65492 -0.1088,0.55258 2.0711,-0.1136 5.4517,0.86508 4.36748,1.2644 6.68906,-0.154 6.68906,-0.154 z m -23.32978,-1.89234 c -0.91082,-3.2802 0.82476,-5.78164 4.4687,-6.44066 l 1.59452,-0.28836 0.58862,-1.71574 c 1.16992,-3.41024 3.16858,-10.77522 3.6819,-13.5676 0.9844,-5.35518 1.4144,-13.88036 0.70012,-13.88036 -0.48898,0 -0.67638,0.57816 -0.67638,2.0866 0,3.45188 -1.14984,10.82156 -2.50804,16.07462 -0.77964,3.01548 -2.91262,9.61942 -3.23782,10.0247 -0.1304,0.1626 -0.73482,0.42082 -1.34318,0.574 -1.56694,0.39456 -3.21688,1.585 -3.9872,2.87676 -0.80516,1.35018 -0.74166,3.06552 0.168,4.53724 0.71676,1.15978 0.92188,1.05506 0.55084,-0.2812 z m 28.041,-15.05994 c 0.2994,-0.78752 0.64146,-4.44396 0.80332,-6.74388 0.0702,-0.99886 -0.57678,-3.99054 -0.48512,-5.73478 0.1856,-3.53224 -10.26054,-4.0486 -12.33542,-4.32574 -1.44782,-0.1934 9.26862,1.42948 8.84448,6.97822 -0.1582,2.06908 0.31064,3.75076 -0.1994,6.60466 -0.51006,2.85392 -0.1382,5.08072 -0.1578,5.29084 -0.0256,0.27406 0.44076,0.46674 1.6506,0.68178 0.92752,0.1648 1.71846,0.31404 1.75768,0.33144 0.0392,0.018 -0.004,-2.75644 0.1216,-3.08254 z m -20.01852,-23.91838 c 0,-0.1274 -0.1782,-0.30008 -0.39604,-0.38366 -0.55462,-0.21282 -1.42122,-2.35264 -1.4144,-3.49242 0.006,-1.0858 0.73286,-2.84738 1.4026,-3.4017 0.249,-0.20608 0.93882,-0.4396 1.53292,-0.5189 0.86914,-0.116 1.0964,-0.25824 1.1631,-0.72792 0.0752,-0.52986 -0.023,-0.58376 -1.06428,-0.58376 -1.38984,0 -2.5146,0.70328 -3.64564,2.27954 -0.64718,0.90192 -0.81826,1.43082 -0.9054,2.79934 -0.1198,1.88186 0.0372,2.17658 1.87424,3.52082 1.04644,0.76566 1.4529,0.90796 1.4529,0.50866 z m 19.69162,-2.9314 c -0.1996,-0.0742 -1.76392,-0.0306 -3.47626,0.0966 -3.40402,0.2532 7.87678,0.80858 6.7589,0.37026 -0.59842,-0.23468 1.0979,-0.78292 1.23558,-1.35804 0.09,-0.3757 -16.85572,-1.02834 -16.83536,-1.05688 0.0204,-0.0286 1.4276,0.053 3.12722,0.1812 1.77712,0.134 4.43176,0.138 6.24742,0.01 2.63826,-0.187 3.47996,-0.3581 5.12072,-1.04114 3.18224,-1.3248 3.41824,-2.20584 0.31194,-1.16464 -4.18868,1.40398 -11.50756,1.51084 -15.43906,0.22538 -1.73088,-0.56592 -3.45848,-0.59942 -3.56816,-0.0692 -0.0582,0.28076 0.1856,0.51934 0.72152,0.70614 0,0 0.892,4.51812 7.60896,2.65216 -0.89596,3.09112 8.62012,0.60992 8.18658,0.44878 z m 9.40916,1.02266 c 1.36462,-1.84596 1.54896,-3.02312 0.74928,-4.78452 -0.48502,-1.06836 -1.9917,-2.15564 -2.98708,-2.15564 -0.62134,0 -0.48946,0.24276 0.768,1.41376 0.98128,0.9138 1.17208,1.24986 1.19622,2.10688 0.044,1.56244 -0.0386,2.14768 -0.43888,3.10546 -0.43068,1.03078 -0.44594,1.15726 -0.1396,1.15726 0.1258,0 0.50916,-0.37944 0.85198,-0.8432 z m -5.4734,-8.62658 c 0.1608,-2.54468 0.7258,-4.45186 2.30586,-7.78336 3.16908,-6.681859 3.69466,-8.653159 3.71904,-13.948699 0.33812,-2.3435 -0.1126,-3.8253 -1.1282,-5.82824 -2.99434,-5.90544 -8.31834,-8.79876 -16.08096,-8.73914 -3.20072,0.0246 -5.38388,0.51132 -8.13422,1.81356 -3.17534,1.50344 -5.3525,4.2954 -7.06516,9.06018 -0.35292,0.98184 -0.46452,2.05418 -0.45904,4.41058 0.01,4.30628 0.78624,7.17058 2.95288,10.896739 2.99842,5.15666 3.98262,7.4615 4.29448,10.05696 0.258,2.14746 0.6379,2.09958 0.6379,-0.0804 0,-2.4763 -0.5793,-4.60996 -1.93388,-7.12266 -2.53152,-4.696 -2.81454,-5.21284 -3.15112,-5.754459 -0.74442,-1.19788 -1.43304,-4.40506 -1.5819,-7.3675 -0.1348,-2.68336 -0.0874,-3.19504 0.4454,-4.79974 1.83178,-5.51768 4.3711,-8.0872 9.33484,-9.44594 1.70694,-0.46724 2.85022,-0.6011 5.0592,-0.59236 6.88068,0.0272 11.58344,2.46016 14.25992,7.37722 1.07622,1.97718 1.35458,2.81604 1.67898,5.05992 0.46388,3.20864 -0.68554,7.83 -3.31236,13.317559 -1.86714,3.9006 -2.76932,6.91018 -3.0592,10.20512 -0.154,1.75174 -0.1486,1.77208 0.45698,1.6864 0.57944,-0.082 0.62104,-0.21446 0.7605,-2.42174 z m -3.83756,-17.416019 c 0.1002,0.1622 0.36304,0.29474 0.58414,0.29474 0.29408,0 0.3603,-0.1662 0.24664,-0.61894 -0.0966,-0.38452 -0.016,-0.7356 0.2159,-0.92702 0.20418,-0.1694 0.30732,-0.47468 0.22918,-0.6783 -0.0974,-0.2534 0.0432,-0.3702 0.4448,-0.3702 1.43076,0 -0.67572,-0.31748 -0.0222,-1.53874 0.35904,-0.67086 -0.67804,-1.1754 -0.48312,-2.90148 -3.01698,-0.9228 -3.6876,-0.76136 -6.16166,-0.48924 -0.82342,0 -1.90734,1.08584 -1.90734,1.91072 0,0.37604 0.1204,0.68372 0.2676,0.68372 0.5153,0 2.45112,1.19876 1.97144,1.7288 -0.47522,0.5251 -1.11544,0.1738 -1.6872,0.69678 -0.3566,0.32622 1.5032,2.76804 1.66342,3.07826 0.36764,0.7118 0.96902,0.24158 2.04058,-0.5704 0.44186,0.002 0.97848,0.1158 1.19252,0.25266 0.71066,0.4541 1.0579,-1.11314 1.40514,-0.55136 z"
         id="path2"
         sodipodi:nodetypes="sssscsscssssscssscsssssssssssssssssscsssscssssssssssssscssssscsssscssssscssssssssccssssssssssssscssssscssssssssssssssssssssssssssssccssssssssssssssssssssssssssssssssscsssscsssssssscsssssssssssssssssssssscssssssssssscsssssscsssscssssssscsssssscsssssscsssssssccssscssscsssssscssss" /></g></g></svg>
