<?xml version="1.0" encoding="UTF-8" standalone="no"?>
<!-- Created with Inkscape (http://www.inkscape.org/) -->

<svg
   width="67.407806mm"
   height="125.16595mm"
   viewBox="0 0 67.407806 125.16594"
   version="1.1"
   id="svg1"
   xml:space="preserve"
   inkscape:version="1.4 (86a8ad7, 2024-10-11)"
   sodipodi:docname="green_pawn.svg"
   xmlns:inkscape="http://www.inkscape.org/namespaces/inkscape"
   xmlns:sodipodi="http://sodipodi.sourceforge.net/DTD/sodipodi-0.dtd"
   xmlns="http://www.w3.org/2000/svg"
   xmlns:svg="http://www.w3.org/2000/svg"><sodipodi:namedview
     id="namedview1"
     pagecolor="#ffffff"
     bordercolor="#000000"
     borderopacity="0.25"
     inkscape:showpageshadow="2"
     inkscape:pageopacity="0.0"
     inkscape:pagecheckerboard="0"
     inkscape:deskcolor="#d1d1d1"
     inkscape:document-units="mm"
     inkscape:zoom="0.73049944"
     inkscape:cx="540.72594"
     inkscape:cy="540.72594"
     inkscape:window-width="3200"
     inkscape:window-height="1711"
     inkscape:window-x="1911"
     inkscape:window-y="1"
     inkscape:window-maximized="1"
     inkscape:current-layer="layer1"><inkscape:page
       x="0"
       y="0"
       width="67.407806"
       height="125.16594"
       id="page2"
       margin="0"
       bleed="0" /></sodipodi:namedview><defs
     id="defs1"><filter
       inkscape:collect="always"
       style="color-interpolation-filters:sRGB"
       id="filter3"
       x="-0.0074780207"
       y="-0.0039996673"
       width="1.014956"
       height="1.0079993"><feGaussianBlur
         inkscape:collect="always"
         stdDeviation="0.1017978"
         id="feGaussianBlur3" /></filter></defs><g
     inkscape:label="Layer 1"
     inkscape:groupmode="layer"
     id="layer1"
     transform="translate(-460.28022,-4.4991906)"><g
       id="g12"
       transform="matrix(1.016413,0,0,1.016413,309.37759,-69.412399)"
       style="stroke-width:0.983852"><path
         style="mix-blend-mode:normal;fill:#00bc1d;fill-opacity:1;stroke-width:0.491926;filter:url(#filter3)"
         d="m 157.73014,182.26014 c -1.70712,-0.82171 -1.53678,-0.50462 -1.68842,-3.14296 -0.0931,-1.61908 -0.0845,-1.75877 0.13124,-2.1537 l 0.23077,-0.42234 -0.24619,-0.34575 c -0.22508,-0.31606 -0.2462,-0.4947 -0.2462,-2.08131 v -1.73556 l 0.69574,-0.86485 c 0.38265,-0.47567 1.17476,-1.24217 1.76023,-1.70332 0.58546,-0.46115 1.36389,-1.07491 1.72982,-1.36392 0.53164,-0.41988 0.76734,-0.7226 1.17309,-1.50657 0.27927,-0.5396 0.61544,-1.26505 0.74703,-1.61209 l 0.23926,-0.63099 -0.33175,-0.35012 c -0.91572,-0.96643 -1.00653,-2.24276 -0.245,-3.44357 0.27323,-0.43083 0.50185,-0.60452 1.34432,-1.02133 l 1.01512,-0.50222 0.47123,-1.15425 c 0.83972,-2.0568 1.6333,-5.56474 1.96418,-8.68262 0.22589,-2.12844 0.2298,-2.06988 -0.14432,-2.16377 -0.64753,-0.16252 -1.97327,-0.85205 -2.42788,-1.26277 -0.52211,-0.4717 -0.83542,-1.20999 -0.8336,-1.96438 0.002,-0.57281 0.4511,-1.57685 0.88858,-1.98373 0.46226,-0.42993 1.56002,-0.95763 2.30228,-1.10669 0.35097,-0.0705 0.66383,-0.19517 0.69526,-0.27707 0.1285,-0.33485 -0.34275,-1.44898 -1.06076,-2.50791 -0.93233,-1.37499 -1.55234,-2.62159 -1.89909,-3.81836 -0.23294,-0.80397 -0.25707,-1.08007 -0.20184,-2.3085 0.092,-2.0453 0.53311,-3.38422 1.58044,-4.79699 1.04787,-1.41349 1.91231,-2.07037 3.49163,-2.65322 1.59418,-0.58834 4.44651,-0.62433 6.15126,-0.0776 2.1999,0.7055 3.70296,2.05008 4.70862,4.21217 0.3236,0.69571 0.36058,0.89543 0.40254,2.1739 0.0653,1.99055 -0.42283,4.1474 -1.36675,6.03873 -0.68727,1.37706 -1.37806,3.13905 -1.40743,3.58991 l -0.0309,0.47439 0.63203,0.1644 c 1.61783,0.42084 2.54215,1.50603 2.54215,2.98461 0,0.4111 -0.0817,0.80322 -0.22636,1.08685 -0.29395,0.57617 -1.19048,1.28329 -2.13721,1.68565 l -0.7529,0.31999 v 1.86234 c 0,2.19786 0.37202,4.78744 0.90875,6.32556 0.5472,1.56818 1.23769,3.16936 1.63114,3.7825 0.30581,0.47656 0.42842,0.57627 0.70864,0.57627 0.18635,0 0.53154,0.0991 0.76708,0.22028 1.53051,0.78725 2.00401,2.82782 0.92939,4.00524 -0.21938,0.24037 -0.2191,0.25099 0.0231,0.86568 0.36082,0.91574 1.41294,2.25376 3.20896,4.08096 0.87583,0.89104 1.74995,1.8538 1.94251,2.13948 0.51653,0.76635 0.84579,1.74986 0.84579,2.52645 0,0.79454 -0.15005,1.28296 -0.59542,1.93819 -0.41757,0.6143 -0.4125,0.83677 0.0287,1.25614 0.59726,0.56785 0.70283,0.89416 0.75528,2.33455 l 0.0481,1.32416 -0.49346,0.45988 c -0.63292,0.58985 -3.9527,2.2127 -5.84103,2.85533 -1.39073,0.47329 -2.72813,0.77508 -4.91887,1.10996 -0.38412,0.0587 -10.61602,1.56869 -19.59888,-2.75511 z m 10.58939,-0.41734 c 4.24022,0.46485 8.24851,0.29275 11.94646,-0.51293 0.75615,-0.16475 3.1493,-0.93313 3.3905,-1.08862 0.0714,-0.046 0.85713,-0.40115 1.74591,-0.78907 l 1.61594,-0.7053 0.0889,0.47369 c 0.0489,0.26054 0.12019,0.74553 0.15842,1.07776 0.11603,1.00859 0.27206,0.55687 0.27206,-0.78763 0,-0.93358 -0.0395,-1.28164 -0.15025,-1.32414 -0.0827,-0.0318 -1.13445,0.37884 -2.33735,0.91235 -4.22686,1.87467 -7.31843,2.5326 -11.9405,2.54108 -2.70752,0.004 -4.13817,-0.12006 -7.61803,-0.66575 -2.00821,-0.31492 -6.18906,-1.56366 -6.40499,-1.91306 -0.0399,-0.0645 -0.17637,-0.11717 -0.30342,-0.11717 -0.22067,0 -0.22747,0.0503 -0.15185,1.12539 0.11294,1.60567 0.19938,2.04879 0.39966,2.04879 0.13578,0 0.1766,-0.22635 0.20299,-1.12538 0.0382,-1.30079 -0.004,-1.26938 1.206,-0.89562 0.72731,0.22464 0.74331,0.23817 0.71655,0.60598 -0.0738,1.01544 6.01569,1.01251 7.163,1.13963 z m -10.71404,-0.75159 c -0.1411,-0.36772 -0.20497,-1.77754 -0.101,-2.2297 0.12916,-0.56172 -0.0271,-0.89253 -0.38883,-0.82315 -0.20386,0.0391 -0.22602,0.16421 -0.25553,1.44365 -0.0268,1.16049 -6.1e-4,1.43256 0.15253,1.58569 0.23289,0.23289 0.68,0.25062 0.59283,0.0236 z m 18.1012,-1.11289 c 3.14782,-0.2672 5.74601,-0.96049 7.96431,-2.12514 2.1268,-1.11659 2.89103,-1.79021 3.5308,-3.11215 0.55904,-1.1551 0.54805,-1.8671 -0.0421,-2.72436 -0.66893,-0.97179 -1.27741,-1.6808 -2.93521,-3.42008 -1.69524,-1.77855 -1.88138,-2.02544 -2.4781,-3.28671 l -0.4162,-0.87974 0.33639,-0.38994 c 0.41818,-0.48477 0.48612,-0.7401 0.4243,-1.59482 -0.0798,-1.10293 -0.91178,-1.96798 -1.89364,-1.96887 -0.57462,-5.3e-4 -0.69985,-0.12579 -1.2704,-1.27065 -1.37853,-2.76615 -2.17479,-6.49282 -2.15165,-10.07027 0.009,-1.41159 -0.0111,-1.5869 -0.18287,-1.58533 -0.48944,0.004 -0.52179,0.13067 -0.44786,1.74772 0.12541,2.74336 0.50353,5.26461 1.13568,7.57251 0.25576,0.93372 1.48761,3.5989 1.77283,3.83561 0.0908,0.0754 0.38786,0.16553 0.66015,0.20041 1.66177,0.21285 2.29787,1.44938 1.47956,2.87615 -0.18741,0.32676 -0.4726,0.69782 -0.63375,0.82459 -0.38021,0.29906 -0.37138,0.40594 0.0263,0.31859 0.30288,-0.0666 0.34212,-0.0238 0.76139,0.82766 0.89585,1.81955 1.96037,3.21479 3.82855,5.01802 1.64827,1.59097 1.9821,2.3238 1.62231,3.56143 -0.34786,1.19659 -1.51077,2.20482 -3.72771,3.23191 -3.05385,1.4148 -7.01636,2.05446 -11.8203,1.90811 -2.0742,-0.0632 -2.79157,-0.13344 -4.25421,-0.41661 -3.68744,-0.71386 -5.55171,-1.28072 -7.77073,-2.36275 -2.12131,-1.0344 -2.73828,-2.33551 -1.91582,-4.04022 0.22159,-0.45929 0.52566,-0.77227 1.48927,-1.53293 1.77525,-1.40133 2.98286,-2.62881 3.49401,-3.55145 0.43353,-0.78256 0.85959,-2.24666 0.71967,-2.47306 -0.16846,-0.27258 -0.37179,-0.0801 -0.51507,0.48768 -0.19507,0.77293 -0.5231,1.47879 -1.05937,2.27963 -0.52301,0.78102 -1.12098,1.35315 -2.46722,2.3606 -1.20381,0.90088 -1.72952,1.46947 -2.23459,2.41692 -0.30551,0.5731 -0.36247,0.80495 -0.36247,1.4755 0,1.47477 0.53148,2.11794 2.70039,3.26797 1.60041,0.84859 4.10275,1.56752 8.03412,2.30825 1.99024,0.37498 5.98475,0.50776 8.59915,0.28582 z m -15.44995,-6.45923 c -0.27841,-0.0629 -0.53638,0.19697 -0.53638,0.42099 0,1.73503 19.43657,3.84995 0.53638,-0.42099 z m -1.96992,-0.40723 c 0.10627,-0.22397 0.52425,-0.71053 0.92881,-1.08124 0.40456,-0.37072 0.73557,-0.71111 0.73557,-0.75645 0,-0.12686 -0.81953,0.39159 -1.25093,0.79137 -0.36869,0.34165 -0.8267,1.08047 -0.8267,1.33351 0,0.25906 0.22983,0.0993 0.41325,-0.28719 z m 22.44085,-2.05281 c 0,-0.0834 1.92715,-0.98958 0.88977,-0.80213 -0.99408,0.17961 -1.73296,-1.79027 -1.89309,-3.1528 -0.0508,-0.43215 -0.96203,-0.78297 -0.99676,-0.8177 -0.0348,-0.0348 -0.20922,-0.0132 -0.38776,0.0478 -0.27442,0.0937 -0.3217,0.16979 -0.30566,0.4917 0.0105,0.20945 0.0703,0.48959 0.133,0.62254 0.0627,0.13295 0.23317,0.57934 0.37879,0.99198 0.60102,1.70314 1.32774,2.7702 1.88664,2.7702 0.16664,0 0.29506,-0.0659 0.29506,-0.15154 z m -0.86095,-7.604 c -4.17831,-0.35368 0.71751,0.0582 0,0 z m -17.36712,-0.0537 c -0.40521,-1.45933 0.36693,-2.57219 1.98808,-2.86538 l 0.7094,-0.12829 0.26186,-0.76332 c 0.52049,-1.51718 1.40967,-4.79378 1.63804,-6.03608 0.43795,-2.38246 0.62925,-6.17523 0.31147,-6.17523 -0.21754,0 -0.30091,0.25722 -0.30091,0.92831 0,1.5357 -0.51155,4.8144 -1.11579,7.15143 -0.34686,1.34156 -1.29581,4.27958 -1.44049,4.45989 -0.058,0.0723 -0.32691,0.18721 -0.59756,0.25536 -0.69712,0.17554 -1.43116,0.70515 -1.77387,1.27984 -0.3582,0.60068 -0.32995,1.36382 0.0747,2.01857 0.31889,0.51598 0.41015,0.46939 0.24507,-0.1251 z m 12.47515,-6.70001 c 0.1332,-0.35036 0.28538,-1.97707 0.35739,-3.00028 0.0312,-0.44438 -0.2566,-1.77535 -0.21582,-2.55135 0.0826,-1.57145 2.39909,-3.47619 1.476,-3.59948 -0.64412,-0.0861 -2.84038,2.31097 -3.02909,4.77954 -0.0704,0.92052 0.1382,1.66868 -0.0887,2.93835 -0.22692,1.26968 -0.0615,2.26036 -0.0702,2.35384 -0.0114,0.12193 0.19609,0.20765 0.73433,0.30332 0.41265,0.0733 0.76453,0.13971 0.78198,0.14745 0.0174,0.008 -0.002,-1.22631 0.0541,-1.37139 z m -8.90603,-10.64104 c 0,-0.0567 -0.0793,-0.1335 -0.17619,-0.17069 -0.24675,-0.0947 -0.63229,-1.04666 -0.62926,-1.55374 0.003,-0.48306 0.32605,-1.26677 0.62401,-1.51338 0.11077,-0.0917 0.41767,-0.19557 0.68198,-0.23085 0.38667,-0.0516 0.48778,-0.11489 0.51745,-0.32385 0.0335,-0.23572 -0.0102,-0.2597 -0.47349,-0.2597 -0.61832,0 -1.11872,0.31288 -1.62191,1.01414 -0.28792,0.40125 -0.36403,0.63656 -0.4028,1.2454 -0.0533,0.83722 0.0165,0.96833 0.83383,1.56637 0.46555,0.34064 0.64638,0.40394 0.64638,0.2263 z m 8.76061,-1.30415 c -0.0888,-0.033 -0.78475,-0.0136 -1.54656,0.043 -1.51441,0.11264 3.5043,0.35973 3.00696,0.16472 -0.26623,-0.1044 0.48844,-0.34831 0.5497,-0.60418 0.04,-0.16714 -7.49894,-0.45749 -7.48988,-0.47019 0.009,-0.0127 0.63512,0.0236 1.39127,0.0806 0.79062,0.0596 1.97164,0.0614 2.77941,0.004 1.17373,-0.0832 1.5482,-0.15931 2.27816,-0.46319 1.41574,-0.58939 1.52073,-0.98136 0.13877,-0.51814 -1.8635,0.62462 -5.11959,0.67216 -6.86867,0.10027 -0.77005,-0.25177 -1.53865,-0.26667 -1.58744,-0.0308 -0.0259,0.1249 0.0826,0.23105 0.321,0.31415 0,0 0.39684,2.01007 3.38514,1.17992 -0.3986,1.37521 3.83501,0.27135 3.64213,0.19966 z m 4.18603,0.45497 c 0.6071,-0.82125 0.68912,-1.34495 0.33335,-2.12858 -0.21578,-0.4753 -0.88608,-0.95902 -1.32892,-0.95902 -0.27643,0 -0.21775,0.108 0.34168,0.62896 0.43656,0.40654 0.52144,0.55605 0.53218,0.93733 0.0196,0.69512 -0.0172,0.95548 -0.19525,1.38159 -0.19162,0.45858 -0.19839,0.51485 -0.0621,0.51485 0.056,0 0.22652,-0.16881 0.37904,-0.37513 z m -2.43506,-3.83787 c 0.0715,-1.13211 0.3229,-1.98059 1.02585,-3.46274 1.40989,-2.97269 1.64372,-3.8497 1.65456,-6.20563 0.15043,-1.0426 -0.0501,-1.70184 -0.50192,-2.59293 -1.33215,-2.62727 -3.70075,-3.91447 -7.15425,-3.88795 -1.42397,0.011 -2.39524,0.22748 -3.61883,0.80684 -1.41268,0.66886 -2.38128,1.91097 -3.14321,4.03078 -0.15702,0.43681 -0.20666,0.91388 -0.20423,1.96222 0.004,1.91582 0.3498,3.19011 1.31371,4.84784 1.33397,2.29415 1.77183,3.31955 1.91057,4.47424 0.11478,0.95538 0.2838,0.93408 0.2838,-0.0358 0,-1.10168 -0.25773,-2.05092 -0.86037,-3.1688 -1.12624,-2.0892 -1.25216,-2.31913 -1.4019,-2.5601 -0.33119,-0.53292 -0.63754,-1.95976 -0.70378,-3.27772 -0.06,-1.1938 -0.0389,-1.42144 0.19816,-2.13535 0.81494,-2.45476 1.94465,-3.59792 4.15297,-4.20241 0.7594,-0.20787 1.26803,-0.26742 2.25079,-0.26353 3.06114,0.0121 5.15335,1.0945 6.34409,3.28205 0.4788,0.87963 0.60263,1.25283 0.74696,2.2511 0.20637,1.4275 -0.30499,3.48349 -1.47364,5.92485 -0.83067,1.73534 -1.23204,3.07427 -1.361,4.54015 -0.0685,0.77933 -0.0661,0.78838 0.2033,0.75026 0.25779,-0.0365 0.2763,-0.0954 0.33834,-1.0774 z m -0.65054,-5.73078 c 0.0446,0.0722 0.16152,0.13113 0.25987,0.13113 0.13084,0 0.1603,-0.0739 0.10973,-0.27536 -0.043,-0.17107 -0.007,-0.32726 0.096,-0.41243 0.0908,-0.0754 0.13673,-0.21118 0.10197,-0.30176 -0.0433,-0.11274 0.0192,-0.1647 0.19788,-0.1647 0.63653,0 -0.30061,-0.14125 -0.01,-0.68457 0.15974,-0.29846 -0.30165,-0.52293 -0.21492,-1.29084 -1.34222,-0.41054 -1.64058,-0.33872 -2.74127,-0.21766 -0.36633,0 -0.84856,0.48308 -0.84856,0.85006 0,0.1673 0.0536,0.30418 0.11906,0.30418 0.22925,0 1.09047,0.53332 0.87707,0.76913 -0.21142,0.23361 -0.49625,0.0773 -0.75062,0.30999 -0.15865,0.14513 0.66876,1.23147 0.74004,1.36948 0.16356,0.31668 0.43111,0.10748 0.90783,-0.25376 0.19658,6.9e-4 0.43532,0.0515 0.53054,0.1124 0.31617,0.20203 0.47065,-0.49522 0.62513,-0.24529 z"
         id="path2-2-8"
         sodipodi:nodetypes="ssscsscssssscssscsssssssssssssssssscsssscssssssssssssscsssssssscssssscssssssssssssssssssssscssssscssssssssssssssssssssssssssssssssssssssssssssssssccscsssssssssssssssssssssssssssssssssscsssssscsssscssssssscsssssscsssssscsssssssccssscssscsssssscsssscc"
         transform="matrix(2,0,0,2,-162.86822,-175.26083)" /></g></g></svg>
