<?xml version="1.0" encoding="UTF-8" standalone="no"?>
<!-- Created with Inkscape (http://www.inkscape.org/) -->

<svg
   width="74.641701mm"
   height="139.38742mm"
   viewBox="0 0 74.6417 139.38742"
   version="1.1"
   id="svg1"
   xml:space="preserve"
   inkscape:version="1.4 (86a8ad7, 2024-10-11)"
   sodipodi:docname="red_pawn.svg"
   xmlns:inkscape="http://www.inkscape.org/namespaces/inkscape"
   xmlns:sodipodi="http://sodipodi.sourceforge.net/DTD/sodipodi-0.dtd"
   xmlns="http://www.w3.org/2000/svg"
   xmlns:svg="http://www.w3.org/2000/svg"><sodipodi:namedview
     id="namedview1"
     pagecolor="#ffffff"
     bordercolor="#000000"
     borderopacity="0.25"
     inkscape:showpageshadow="2"
     inkscape:pageopacity="0.0"
     inkscape:pagecheckerboard="0"
     inkscape:deskcolor="#d1d1d1"
     inkscape:document-units="mm"
     inkscape:zoom="0.73049944"
     inkscape:cx="396.30421"
     inkscape:cy="561.25984"
     inkscape:window-width="3200"
     inkscape:window-height="1711"
     inkscape:window-x="1911"
     inkscape:window-y="1"
     inkscape:window-maximized="1"
     inkscape:current-layer="layer1"><inkscape:page
       x="0"
       y="0"
       width="74.641701"
       height="139.38742"
       id="page2"
       margin="0"
       bleed="0" /></sodipodi:namedview><defs
     id="defs1" /><g
     inkscape:label="Layer 1"
     inkscape:groupmode="layer"
     id="layer1"
     transform="translate(-509.39015,-6.2894412)"><g
       id="g12"
       transform="matrix(1.016413,0,0,1.016413,309.37759,-69.412399)"
       style="stroke-width:0.983852"><path
         style="fill:purple;fill-opacity:1;stroke-width:0.983852"
         d="m 225.84074,211.44847 c -9.14342,-0.65642 -17.04598,-2.72634 -24.96976,-6.54038 -3.83716,-1.84698 -3.45428,-1.13426 -3.79514,-7.06458 -0.20918,-3.63928 -0.19,-3.95326 0.29502,-4.84098 l 0.5187,-0.9493 -0.55338,-0.77716 c -0.5059,-0.71044 -0.5534,-1.11196 -0.5534,-4.67826 v -3.9011 l 1.56386,-1.94398 c 0.8601,-1.06918 2.64056,-2.79208 3.95654,-3.82862 1.31598,-1.03656 3.06568,-2.41614 3.8882,-3.06576 1.195,-0.94378 1.72482,-1.62422 2.63682,-3.38638 0.62774,-1.2129 1.38336,-2.84352 1.67914,-3.62358 l 0.53782,-1.4183 -0.74572,-0.787 c -2.05832,-2.17228 -2.26242,-5.04114 -0.55068,-7.74028 0.61412,-0.96838 1.12802,-1.3588 3.02168,-2.29568 l 2.28172,-1.12886 1.05922,-2.59446 c 1.8875,-4.62318 3.67124,-12.50814 4.41498,-19.51636 0.50774,-4.7842 0.51652,-4.65256 -0.32438,-4.8636 -1.45548,-0.36532 -4.43542,-1.9152 -5.45728,-2.8384 -1.17358,-1.06026 -1.8778,-2.71976 -1.87372,-4.41542 0.004,-1.28754 1.01398,-3.54438 1.9973,-4.45894 1.03906,-0.96638 3.50654,-2.1525 5.17494,-2.48756 0.7889,-0.1584 1.49216,-0.43868 1.5628,-0.62278 0.28884,-0.75266 -0.77042,-3.25694 -2.38434,-5.63714 -2.09566,-3.09064 -3.48926,-5.89268 -4.26868,-8.582719 -0.52358,-1.80712 -0.57784,-2.42774 -0.45368,-5.18892 0.20676,-4.59732 1.19832,-7.60688 3.55244,-10.78244 2.35536,-3.17716 4.2984,-4.65366 7.84832,-5.96376 3.5833,-1.32244 9.99462,-1.40334 13.82648,-0.1744 4.94482,1.5858 8.32332,4.60808 10.58378,9.4679 0.72738,1.56378 0.8105,2.01272 0.90482,4.88638 0.1468,4.47426 -0.95042,9.32232 -3.07212,13.573559 -1.5448,3.09528 -3.09752,7.05578 -3.16354,8.06922 l -0.0694,1.0663 1.42066,0.36954 c 3.63648,0.94594 5.7141,3.38516 5.7141,6.70864 0,0.92406 -0.1836,1.80544 -0.5088,2.44296 -0.66072,1.2951 -2.6759,2.88452 -4.8039,3.78892 l -1.69234,0.71926 v 4.18608 c 0,4.94022 0.83622,10.76096 2.04264,14.21826 1.22998,3.52488 2.78202,7.12392 3.6664,8.5021 0.68738,1.0712 0.96298,1.29532 1.59284,1.29532 0.41888,0 1.19478,0.22282 1.7242,0.49514 3.4402,1.76954 4.5045,6.35622 2.08904,9.00276 -0.49312,0.5403 -0.49248,0.56416 0.052,1.94584 0.81102,2.05836 3.17592,5.06588 7.2129,9.17298 1.96866,2.00282 3.93348,4.16686 4.36628,4.809 1.16104,1.72258 1.90112,3.93328 1.90112,5.67882 0,1.78594 -0.33726,2.88378 -1.33836,4.35658 -0.93858,1.3808 -0.92718,1.88086 0.0644,2.82348 1.3425,1.27638 1.5798,2.00986 1.69768,5.24748 l 0.1082,2.97638 -1.10918,1.03372 c -1.42264,1.32582 -8.88468,4.97358 -13.12916,6.41806 -3.12602,1.06384 -6.13216,1.74218 -11.0564,2.4949 -3.15226,0.48184 -14.36784,0.68612 -19.08358,0.34758 z m -4.17784,-5.6863 c 0,-1.54588 0.43154,-2.07788 3.01038,-1.79214 9.53094,1.04486 18.54056,0.65802 26.85266,-1.15294 1.6996,-0.37032 7.0788,-2.09744 7.62098,-2.44694 0.1606,-0.1034 1.92662,-0.9017 3.92436,-1.77364 l 3.63224,-1.58534 0.1998,1.06474 c 0.11,0.58562 0.27016,1.67576 0.35606,2.42254 0.26084,2.26704 0.61156,1.2517 0.61156,-1.7704 0,-2.09846 -0.0888,-2.8808 -0.33774,-2.97634 -0.1858,-0.0714 -2.54996,0.85154 -5.25378,2.05074 -9.5009,4.21378 -16.44998,5.69264 -26.83922,5.7117 -6.08584,0.01 -9.30158,-0.26986 -17.12342,-1.49644 -4.51396,-0.70786 -13.91146,-3.5147 -14.39682,-4.30006 -0.0896,-0.145 -0.39642,-0.26338 -0.682,-0.26338 -0.49602,0 -0.5113,0.113 -0.34132,2.5296 0.25386,3.60914 0.44814,4.60516 0.89834,4.60516 0.30516,0 0.39694,-0.50878 0.45626,-2.52958 0.0858,-2.92384 -0.01,-2.85324 2.71076,-2.01312 1.63484,0.50494 1.67078,0.53534 1.61064,1.36208 -0.1756,2.41504 17.09806,8.49416 19.74876,8.80662 0.24204,0.031 -6.65858,-4.45286 -6.65858,-4.45286 z m -21.07208,-3.48154 c -0.31716,-0.82654 -0.46072,-3.99546 -0.22704,-5.0118 0.29032,-1.2626 -0.061,-2.00618 -0.87396,-1.85024 -0.45826,0.0878 -0.50804,0.36912 -0.57438,3.24496 -0.0602,2.6085 -10e-4,3.22004 0.34284,3.56424 0.5235,0.52348 1.52846,0.56334 1.33254,0.053 z m 40.68694,-2.50148 c 7.0755,-0.60062 12.91558,-2.15896 17.90178,-4.77678 4.78048,-2.50982 6.49828,-4.02396 7.93632,-6.99534 1.25658,-2.59638 1.23188,-4.19678 -0.0946,-6.12368 -1.50358,-2.18434 -2.8713,-3.77802 -6.59762,-7.68748 -3.81048,-3.99774 -4.22886,-4.55268 -5.57014,-7.3877 l -0.93552,-1.97742 0.75612,-0.8765 c 0.93998,-1.08964 1.09268,-1.66356 0.95372,-3.58476 -0.1794,-2.4791 -2.04944,-4.42352 -4.25642,-4.42552 -1.2916,-0.001 -1.57308,-0.28274 -2.85554,-2.8561 -3.0986,-6.2176 -4.88838,-14.59422 -4.83638,-22.63544 0.0206,-3.1729 -0.025,-3.56694 -0.41104,-3.56342 -1.10014,0.01 -1.17284,0.29372 -1.00668,3.92844 0.2819,6.16638 1.13182,11.83352 2.55274,17.0211 0.57488,2.09876 3.34376,8.08942 3.98486,8.62148 0.20406,0.1694 0.87182,0.37208 1.48386,0.45048 3.73524,0.47844 5.16504,3.25784 3.32568,6.46486 -0.42126,0.73448 -1.06228,1.56852 -1.42452,1.85346 -0.8546,0.67222 -0.83474,0.91246 0.0592,0.71612 0.68082,-0.1496 0.76902,-0.0536 1.7114,1.86038 2.01366,4.08988 4.40644,7.22604 8.60562,11.27924 3.7049,3.5761 4.45526,5.22332 3.64654,8.0052 -0.7819,2.68964 -3.39582,4.95588 -8.37896,7.26452 -6.86428,3.18012 -15.771,4.6179 -26.56906,4.28894 -4.66228,-0.142 -6.27474,-0.29994 -9.56238,-0.93642 -8.28844,-1.60458 -12.47886,-2.87874 -17.46664,-5.31088 -4.76818,-2.32506 -6.15498,-5.24964 -4.3063,-9.0814 0.49808,-1.03236 1.18156,-1.73586 3.34752,-3.44564 3.9903,-3.14984 6.70472,-5.9089 7.85364,-7.98276 0.97448,-1.759 1.93216,-5.04992 1.61764,-5.55882 -0.37866,-0.61268 -0.83568,-0.18 -1.15774,1.09618 -0.43848,1.73736 -1.1758,3.32396 -2.3812,5.12404 -1.1756,1.75554 -2.51968,3.04154 -5.54568,5.30604 -2.70588,2.02494 -3.88754,3.303 -5.0228,5.43262 -0.68672,1.28818 -0.81474,1.80934 -0.81474,3.31656 0,3.3149 1.19462,4.7606 6.0698,7.34558 3.5973,1.9074 9.22194,3.52338 18.05868,5.18836 4.47354,0.84286 13.4522,1.14132 19.32872,0.64246 z m -8.82612,-8.02714 c 0.261,-0.2884 0.42728,-0.52962 0.36948,-0.53602 -0.0578,-0.006 -0.92234,-0.0678 -1.9212,-0.1364 -4.72376,-0.32464 -9.93172,-1.18794 -14.78842,-2.45142 -3.48068,-0.90552 -4.64044,-1.30972 -7.08364,-2.46884 -1.0421,-0.49438 -2.15708,-0.89888 -2.4777,-0.89888 -0.64156,0 -1.20566,0.44274 -1.20566,0.9463 0,0.63114 4.3535,2.40726 8.82116,3.59882 0.92752,0.24738 2.1534,0.60308 2.7242,0.79046 0.57076,0.1874 1.62152,0.42836 2.335,0.5355 1.43784,0.2159 1.43626,0.2157 3.63224,0.46864 0.85618,0.0986 1.9653,0.26578 2.46474,0.3715 0.49944,0.1056 2.20118,0.21754 3.78166,0.24848 2.5946,0.0508 2.91968,0.004 3.34814,-0.46808 z m -30.32938,-7.40694 c 0.23888,-0.50344 1.17838,-1.5971 2.08774,-2.43036 0.90936,-0.83328 1.6534,-1.5984 1.6534,-1.7003 0,-0.28516 -1.8421,0.88018 -2.81178,1.77878 -0.82872,0.76796 -1.85824,2.42864 -1.85824,2.9974 0,0.5823 0.51662,0.22326 0.92888,-0.64552 z m 50.4414,-4.6142 c 0,-0.1874 4.33174,-2.22434 1.99996,-1.803 -2.23444,0.40372 -3.89524,-4.02406 -4.25518,-7.0867 -0.1142,-0.97136 -2.1624,-1.75992 -2.24046,-1.83798 -0.0782,-0.0782 -0.47028,-0.0296 -0.8716,0.1074 -0.61682,0.2107 -0.7231,0.38164 -0.68704,1.10522 0.0236,0.47078 0.158,1.10048 0.29896,1.3993 0.141,0.29884 0.5241,1.30222 0.85142,2.22974 1.35094,3.82822 2.98442,6.2267 4.2407,6.2267 0.37458,0 0.66324,-0.1482 0.66324,-0.34062 z m -12.39394,-10.55534 c 1.30838,-0.28556 2.50156,-0.65114 2.65152,-0.81236 0.20004,-0.21512 0.0856,-0.24916 -0.42974,-0.1278 -1.0534,0.24802 -6.85172,0.67218 -8.70894,0.63706 -0.89538,-0.016 -1.70926,0.0506 -1.80862,0.15 -0.79918,0.79918 4.85742,0.90364 8.29578,0.1532 z m -5.24838,-4.76484 c 0,0 17.31992,-1.64086 15.70714,-1.7717 -9.3918,-0.79498 -4.44988,-2.07616 -4.33614,-2.18928 0.53478,-0.5338 -10.8528,0.2422 -11.15344,0.95804 -0.4611,1.0978 -0.77436,1.2378 -1.6067,0.718 -0.59188,-0.36964 -1.36738,-0.0318 -1.50264,0.65492 -0.1088,0.55258 2.0711,-0.1136 5.4517,0.86508 4.36748,1.2644 6.68906,-0.154 6.68906,-0.154 z m -23.32978,-1.89234 c -0.91082,-3.2802 0.82476,-5.78164 4.4687,-6.44066 l 1.59452,-0.28836 0.58862,-1.71574 c 1.16992,-3.41024 3.16858,-10.77522 3.6819,-13.5676 0.9844,-5.35518 1.4144,-13.88036 0.70012,-13.88036 -0.48898,0 -0.67638,0.57816 -0.67638,2.0866 0,3.45188 -1.14984,10.82156 -2.50804,16.07462 -0.77964,3.01548 -2.91262,9.61942 -3.23782,10.0247 -0.1304,0.1626 -0.73482,0.42082 -1.34318,0.574 -1.56694,0.39456 -3.21688,1.585 -3.9872,2.87676 -0.80516,1.35018 -0.74166,3.06552 0.168,4.53724 0.71676,1.15978 0.92188,1.05506 0.55084,-0.2812 z m 28.041,-15.05994 c 0.2994,-0.78752 0.64146,-4.44396 0.80332,-6.74388 0.0702,-0.99886 -0.57678,-3.99054 -0.48512,-5.73478 0.1856,-3.53224 -10.26054,-4.0486 -12.33542,-4.32574 -1.44782,-0.1934 9.26862,1.42948 8.84448,6.97822 -0.1582,2.06908 0.31064,3.75076 -0.1994,6.60466 -0.51006,2.85392 -0.1382,5.08072 -0.1578,5.29084 -0.0256,0.27406 0.44076,0.46674 1.6506,0.68178 0.92752,0.1648 1.71846,0.31404 1.75768,0.33144 0.0392,0.018 -0.004,-2.75644 0.1216,-3.08254 z m -20.01852,-23.91838 c 0,-0.1274 -0.1782,-0.30008 -0.39604,-0.38366 -0.55462,-0.21282 -1.42122,-2.35264 -1.4144,-3.49242 0.006,-1.0858 0.73286,-2.84738 1.4026,-3.4017 0.249,-0.20608 0.93882,-0.4396 1.53292,-0.5189 0.86914,-0.116 1.0964,-0.25824 1.1631,-0.72792 0.0752,-0.52986 -0.023,-0.58376 -1.06428,-0.58376 -1.38984,0 -2.5146,0.70328 -3.64564,2.27954 -0.64718,0.90192 -0.81826,1.43082 -0.9054,2.79934 -0.1198,1.88186 0.0372,2.17658 1.87424,3.52082 1.04644,0.76566 1.4529,0.90796 1.4529,0.50866 z m 19.69162,-2.9314 c -0.1996,-0.0742 -1.76392,-0.0306 -3.47626,0.0966 -3.40402,0.2532 7.87678,0.80858 6.7589,0.37026 -0.59842,-0.23468 1.0979,-0.78292 1.23558,-1.35804 0.09,-0.3757 -16.85572,-1.02834 -16.83536,-1.05688 0.0204,-0.0286 1.4276,0.053 3.12722,0.1812 1.77712,0.134 4.43176,0.138 6.24742,0.01 2.63826,-0.187 3.47996,-0.3581 5.12072,-1.04114 3.18224,-1.3248 3.41824,-2.20584 0.31194,-1.16464 -4.18868,1.40398 -11.50756,1.51084 -15.43906,0.22538 -1.73088,-0.56592 -3.45848,-0.59942 -3.56816,-0.0692 -0.0582,0.28076 0.1856,0.51934 0.72152,0.70614 0,0 0.892,4.51812 7.60896,2.65216 -0.89596,3.09112 8.62012,0.60992 8.18658,0.44878 z m 9.40916,1.02266 c 1.36462,-1.84596 1.54896,-3.02312 0.74928,-4.78452 -0.48502,-1.06836 -1.9917,-2.15564 -2.98708,-2.15564 -0.62134,0 -0.48946,0.24276 0.768,1.41376 0.98128,0.9138 1.17208,1.24986 1.19622,2.10688 0.044,1.56244 -0.0386,2.14768 -0.43888,3.10546 -0.43068,1.03078 -0.44594,1.15726 -0.1396,1.15726 0.1258,0 0.50916,-0.37944 0.85198,-0.8432 z m -5.4734,-8.62658 c 0.1608,-2.54468 0.7258,-4.45186 2.30586,-7.78336 3.16908,-6.681859 3.69466,-8.653159 3.71904,-13.948699 0.33812,-2.3435 -0.1126,-3.8253 -1.1282,-5.82824 -2.99434,-5.90544 -8.31834,-8.79876 -16.08096,-8.73914 -3.20072,0.0246 -5.38388,0.51132 -8.13422,1.81356 -3.17534,1.50344 -5.3525,4.2954 -7.06516,9.06018 -0.35292,0.98184 -0.46452,2.05418 -0.45904,4.41058 0.01,4.30628 0.78624,7.17058 2.95288,10.896739 2.99842,5.15666 3.98262,7.4615 4.29448,10.05696 0.258,2.14746 0.6379,2.09958 0.6379,-0.0804 0,-2.4763 -0.5793,-4.60996 -1.93388,-7.12266 -2.53152,-4.696 -2.81454,-5.21284 -3.15112,-5.754459 -0.74442,-1.19788 -1.43304,-4.40506 -1.5819,-7.3675 -0.1348,-2.68336 -0.0874,-3.19504 0.4454,-4.79974 1.83178,-5.51768 4.3711,-8.0872 9.33484,-9.44594 1.70694,-0.46724 2.85022,-0.6011 5.0592,-0.59236 6.88068,0.0272 11.58344,2.46016 14.25992,7.37722 1.07622,1.97718 1.35458,2.81604 1.67898,5.05992 0.46388,3.20864 -0.68554,7.83 -3.31236,13.317559 -1.86714,3.9006 -2.76932,6.91018 -3.0592,10.20512 -0.154,1.75174 -0.1486,1.77208 0.45698,1.6864 0.57944,-0.082 0.62104,-0.21446 0.7605,-2.42174 z m -3.83756,-17.416019 c 0.1002,0.1622 0.36304,0.29474 0.58414,0.29474 0.29408,0 0.3603,-0.1662 0.24664,-0.61894 -0.0966,-0.38452 -0.016,-0.7356 0.2159,-0.92702 0.20418,-0.1694 0.30732,-0.47468 0.22918,-0.6783 -0.0974,-0.2534 0.0432,-0.3702 0.4448,-0.3702 1.43076,0 -0.67572,-0.31748 -0.0222,-1.53874 0.35904,-0.67086 -0.67804,-1.1754 -0.48312,-2.90148 -3.01698,-0.9228 -3.6876,-0.76136 -6.16166,-0.48924 -0.82342,0 -1.90734,1.08584 -1.90734,1.91072 0,0.37604 0.1204,0.68372 0.2676,0.68372 0.5153,0 2.45112,1.19876 1.97144,1.7288 -0.47522,0.5251 -1.11544,0.1738 -1.6872,0.69678 -0.3566,0.32622 1.5032,2.76804 1.66342,3.07826 0.36764,0.7118 0.96902,0.24158 2.04058,-0.5704 0.44186,0.002 0.97848,0.1158 1.19252,0.25266 0.71066,0.4541 1.0579,-1.11314 1.40514,-0.55136 z"
         id="path2"
         sodipodi:nodetypes="sssscsscssssscssscsssssssssssssssssscsssscssssssssssssscssssscsssscssssscssssssssccssssssssssssscssssscssssssssssssssssssssssssssssccssssssssssssssssssssssssssssssssscsssscsssssssscsssssssssssssssssssssscssssssssssscsssssscsssscssssssscsssssscsssssscsssssssccssscssscsssssscssss" /></g></g></svg>
